M48
; DRILL file {KiCad (5.1.0)-1} date 07.04.2019 02:16:44
; FORMAT={-:-/ absolute / metric / decimal}
; #@! TF.CreationDate,2019-04-07T02:16:44+02:00
; #@! TF.GenerationSoftware,Kicad,Pcbnew,(5.1.0)-1
FMAT,2
METRIC
T1C0.300
T2C0.400
T3C0.800
T4C1.000
T5C1.100
T6C1.300
T7C3.500
T8C3.500
%
G90
G05
T1
X170.942Y-78.232
X170.942Y-79.248
X171.45Y-78.74
X171.958Y-78.232
X171.958Y-79.248
T2
X148.59Y-80.645
X153.035Y-97.155
X153.67Y-99.695
X154.305Y-80.645
X154.305Y-83.185
X154.305Y-84.455
X154.305Y-85.725
X154.305Y-110.49
X155.575Y-99.695
X158.115Y-72.39
X160.655Y-98.425
X160.655Y-101.6
X160.655Y-110.49
X161.29Y-70.485
X161.29Y-87.63
X163.83Y-78.74
X164.465Y-72.39
X164.592Y-94.615
X166.37Y-72.39
X167.005Y-90.17
X167.005Y-92.075
X167.005Y-95.885
X168.275Y-95.885
X168.91Y-72.39
X171.45Y-72.39
X171.45Y-74.295
X173.355Y-98.425
X173.355Y-106.045
X173.355Y-107.95
X173.355Y-111.76
X173.99Y-99.695
X177.165Y-90.17
X177.165Y-111.76
X178.435Y-94.615
X179.705Y-81.28
X179.705Y-90.17
X179.705Y-97.79
X179.705Y-106.045
X180.975Y-109.855
X182.245Y-80.01
X182.88Y-100.965
X184.15Y-80.01
X186.055Y-80.01
X187.96Y-97.79
X188.595Y-75.565
X188.595Y-81.915
X188.595Y-92.71
X188.595Y-95.25
X188.595Y-104.14
X188.595Y-110.49
X189.865Y-104.14
X190.5Y-90.17
X198.12Y-76.835
X198.12Y-78.105
X198.12Y-79.375
X198.12Y-80.645
X198.12Y-81.915
X198.12Y-90.805
X198.12Y-94.615
X198.12Y-95.885
X198.12Y-104.775
X198.12Y-106.045
X198.12Y-107.315
X198.12Y-108.585
X198.12Y-109.855
X200.66Y-92.075
X200.66Y-93.345
X201.295Y-100.33
X201.295Y-104.775
X202.565Y-114.935
X202.565Y-117.475
X205.105Y-76.835
X205.105Y-78.105
X205.105Y-79.375
X205.105Y-80.645
X205.105Y-81.915
X205.105Y-90.805
X205.105Y-92.075
X205.105Y-93.345
X205.105Y-94.615
X205.105Y-95.885
X205.105Y-104.775
X205.105Y-106.045
X205.105Y-107.315
X205.105Y-108.585
X205.105Y-109.855
X205.105Y-117.475
X207.645Y-117.475
X210.185Y-117.475
X212.725Y-117.475
X213.995Y-85.217
X213.995Y-86.106
X213.995Y-86.995
X214.152Y-87.854
X214.787Y-88.489
X215.422Y-89.124
X215.9Y-117.475
X219.075Y-117.475
T3
X161.29Y-81.915
X161.29Y-92.075
T4
X150.495Y-103.505
X150.495Y-106.045
X150.495Y-108.585
X215.9Y-90.805
X215.9Y-93.345
X215.9Y-95.885
X215.9Y-98.425
T5
X209.55Y-104.775
X209.55Y-107.315
X209.55Y-109.855
X209.55Y-76.835
X209.55Y-79.375
X209.55Y-81.915
X209.55Y-90.805
X209.55Y-93.345
X209.55Y-95.885
T6
X151.13Y-84.455
X151.13Y-89.455
T7
X192.89Y-107.315
X192.89Y-79.375
X192.89Y-93.345
T8
X151.059Y-74.089
X151.059Y-114.089
X221.059Y-74.089
X221.059Y-114.089
T0
M30
