G04 #@! TF.GenerationSoftware,KiCad,Pcbnew,(5.1.0)-1*
G04 #@! TF.CreationDate,2019-04-08T23:38:12+02:00*
G04 #@! TF.ProjectId,WiFiLEDController_FET,57694669-4c45-4444-936f-6e74726f6c6c,rev?*
G04 #@! TF.SameCoordinates,Original*
G04 #@! TF.FileFunction,Soldermask,Top*
G04 #@! TF.FilePolarity,Negative*
%FSLAX46Y46*%
G04 Gerber Fmt 4.6, Leading zero omitted, Abs format (unit mm)*
G04 Created by KiCad (PCBNEW (5.1.0)-1) date 2019-04-08 23:38:12*
%MOMM*%
%LPD*%
G04 APERTURE LIST*
%ADD10C,0.100000*%
G04 APERTURE END LIST*
D10*
G36*
X221285645Y-112297969D02*
G01*
X221584090Y-112357333D01*
X221911862Y-112493101D01*
X222206849Y-112690205D01*
X222457715Y-112941071D01*
X222654819Y-113236058D01*
X222790587Y-113563830D01*
X222859800Y-113911791D01*
X222859800Y-114266569D01*
X222790587Y-114614530D01*
X222654819Y-114942302D01*
X222457715Y-115237289D01*
X222206849Y-115488155D01*
X221911862Y-115685259D01*
X221584090Y-115821027D01*
X221285645Y-115880391D01*
X221236130Y-115890240D01*
X220881350Y-115890240D01*
X220831835Y-115880391D01*
X220533390Y-115821027D01*
X220205618Y-115685259D01*
X219910631Y-115488155D01*
X219659765Y-115237289D01*
X219462661Y-114942302D01*
X219326893Y-114614530D01*
X219257680Y-114266569D01*
X219257680Y-113911791D01*
X219326893Y-113563830D01*
X219462661Y-113236058D01*
X219659765Y-112941071D01*
X219910631Y-112690205D01*
X220205618Y-112493101D01*
X220533390Y-112357333D01*
X220831835Y-112297969D01*
X220881350Y-112288120D01*
X221236130Y-112288120D01*
X221285645Y-112297969D01*
X221285645Y-112297969D01*
G37*
G36*
X151285785Y-112297969D02*
G01*
X151584230Y-112357333D01*
X151912002Y-112493101D01*
X152206989Y-112690205D01*
X152457855Y-112941071D01*
X152654959Y-113236058D01*
X152790727Y-113563830D01*
X152859940Y-113911791D01*
X152859940Y-114266569D01*
X152790727Y-114614530D01*
X152654959Y-114942302D01*
X152457855Y-115237289D01*
X152206989Y-115488155D01*
X151912002Y-115685259D01*
X151584230Y-115821027D01*
X151285785Y-115880391D01*
X151236270Y-115890240D01*
X150881490Y-115890240D01*
X150831975Y-115880391D01*
X150533530Y-115821027D01*
X150205758Y-115685259D01*
X149910771Y-115488155D01*
X149659905Y-115237289D01*
X149462801Y-114942302D01*
X149327033Y-114614530D01*
X149257820Y-114266569D01*
X149257820Y-113911791D01*
X149327033Y-113563830D01*
X149462801Y-113236058D01*
X149659905Y-112941071D01*
X149910771Y-112690205D01*
X150205758Y-112493101D01*
X150533530Y-112357333D01*
X150831975Y-112297969D01*
X150881490Y-112288120D01*
X151236270Y-112288120D01*
X151285785Y-112297969D01*
X151285785Y-112297969D01*
G37*
G36*
X207718674Y-113553465D02*
G01*
X207756367Y-113564899D01*
X207791103Y-113583466D01*
X207821548Y-113608452D01*
X207846534Y-113638897D01*
X207865101Y-113673633D01*
X207876535Y-113711326D01*
X207881000Y-113756661D01*
X207881000Y-114843339D01*
X207876535Y-114888674D01*
X207865101Y-114926367D01*
X207846534Y-114961103D01*
X207821548Y-114991548D01*
X207791103Y-115016534D01*
X207756367Y-115035101D01*
X207718674Y-115046535D01*
X207673339Y-115051000D01*
X206836661Y-115051000D01*
X206791326Y-115046535D01*
X206753633Y-115035101D01*
X206718897Y-115016534D01*
X206688452Y-114991548D01*
X206663466Y-114961103D01*
X206644899Y-114926367D01*
X206633465Y-114888674D01*
X206629000Y-114843339D01*
X206629000Y-113756661D01*
X206633465Y-113711326D01*
X206644899Y-113673633D01*
X206663466Y-113638897D01*
X206688452Y-113608452D01*
X206718897Y-113583466D01*
X206753633Y-113564899D01*
X206791326Y-113553465D01*
X206836661Y-113549000D01*
X207673339Y-113549000D01*
X207718674Y-113553465D01*
X207718674Y-113553465D01*
G37*
G36*
X209768674Y-113553465D02*
G01*
X209806367Y-113564899D01*
X209841103Y-113583466D01*
X209871548Y-113608452D01*
X209896534Y-113638897D01*
X209915101Y-113673633D01*
X209926535Y-113711326D01*
X209931000Y-113756661D01*
X209931000Y-114843339D01*
X209926535Y-114888674D01*
X209915101Y-114926367D01*
X209896534Y-114961103D01*
X209871548Y-114991548D01*
X209841103Y-115016534D01*
X209806367Y-115035101D01*
X209768674Y-115046535D01*
X209723339Y-115051000D01*
X208886661Y-115051000D01*
X208841326Y-115046535D01*
X208803633Y-115035101D01*
X208768897Y-115016534D01*
X208738452Y-114991548D01*
X208713466Y-114961103D01*
X208694899Y-114926367D01*
X208683465Y-114888674D01*
X208679000Y-114843339D01*
X208679000Y-113756661D01*
X208683465Y-113711326D01*
X208694899Y-113673633D01*
X208713466Y-113638897D01*
X208738452Y-113608452D01*
X208768897Y-113583466D01*
X208803633Y-113564899D01*
X208841326Y-113553465D01*
X208886661Y-113549000D01*
X209723339Y-113549000D01*
X209768674Y-113553465D01*
X209768674Y-113553465D01*
G37*
G36*
X171501000Y-112766000D02*
G01*
X168899000Y-112766000D01*
X168899000Y-111664000D01*
X171501000Y-111664000D01*
X171501000Y-112766000D01*
X171501000Y-112766000D01*
G37*
G36*
X186701000Y-112766000D02*
G01*
X184099000Y-112766000D01*
X184099000Y-111664000D01*
X186701000Y-111664000D01*
X186701000Y-112766000D01*
X186701000Y-112766000D01*
G37*
G36*
X165456000Y-111536000D02*
G01*
X163804000Y-111536000D01*
X163804000Y-110134000D01*
X165456000Y-110134000D01*
X165456000Y-111536000D01*
X165456000Y-111536000D01*
G37*
G36*
X157506000Y-111536000D02*
G01*
X155854000Y-111536000D01*
X155854000Y-110134000D01*
X157506000Y-110134000D01*
X157506000Y-111536000D01*
X157506000Y-111536000D01*
G37*
G36*
X210601000Y-110858500D02*
G01*
X208499000Y-110858500D01*
X208499000Y-108851500D01*
X210601000Y-108851500D01*
X210601000Y-110858500D01*
X210601000Y-110858500D01*
G37*
G36*
X171501000Y-110766000D02*
G01*
X168899000Y-110766000D01*
X168899000Y-109664000D01*
X171501000Y-109664000D01*
X171501000Y-110766000D01*
X171501000Y-110766000D01*
G37*
G36*
X186701000Y-110766000D02*
G01*
X184099000Y-110766000D01*
X184099000Y-109664000D01*
X186701000Y-109664000D01*
X186701000Y-110766000D01*
X186701000Y-110766000D01*
G37*
G36*
X151396000Y-109486000D02*
G01*
X149594000Y-109486000D01*
X149594000Y-107684000D01*
X151396000Y-107684000D01*
X151396000Y-109486000D01*
X151396000Y-109486000D01*
G37*
G36*
X193066669Y-105522686D02*
G01*
X193243058Y-105540059D01*
X193582548Y-105643042D01*
X193582550Y-105643043D01*
X193895422Y-105810277D01*
X194169661Y-106035339D01*
X194394723Y-106309578D01*
X194438493Y-106391466D01*
X194561958Y-106622452D01*
X194664941Y-106961942D01*
X194699714Y-107315000D01*
X194664941Y-107668058D01*
X194561958Y-108007548D01*
X194561957Y-108007550D01*
X194394723Y-108320422D01*
X194169661Y-108594661D01*
X193895422Y-108819723D01*
X193582550Y-108986957D01*
X193582548Y-108986958D01*
X193243058Y-109089941D01*
X193066669Y-109107314D01*
X192978476Y-109116000D01*
X192801524Y-109116000D01*
X192713331Y-109107314D01*
X192536942Y-109089941D01*
X192197452Y-108986958D01*
X192197450Y-108986957D01*
X191884578Y-108819723D01*
X191610339Y-108594661D01*
X191385277Y-108320422D01*
X191218043Y-108007550D01*
X191218042Y-108007548D01*
X191115059Y-107668058D01*
X191080286Y-107315000D01*
X191115059Y-106961942D01*
X191218042Y-106622452D01*
X191341507Y-106391466D01*
X191385277Y-106309578D01*
X191610339Y-106035339D01*
X191884578Y-105810277D01*
X192197450Y-105643043D01*
X192197452Y-105643042D01*
X192536942Y-105540059D01*
X192713331Y-105522686D01*
X192801524Y-105514000D01*
X192978476Y-105514000D01*
X193066669Y-105522686D01*
X193066669Y-105522686D01*
G37*
G36*
X171501000Y-108766000D02*
G01*
X168899000Y-108766000D01*
X168899000Y-107664000D01*
X171501000Y-107664000D01*
X171501000Y-108766000D01*
X171501000Y-108766000D01*
G37*
G36*
X186701000Y-108766000D02*
G01*
X184099000Y-108766000D01*
X184099000Y-107664000D01*
X186701000Y-107664000D01*
X186701000Y-108766000D01*
X186701000Y-108766000D01*
G37*
G36*
X209695936Y-106316340D02*
G01*
X209794220Y-106326020D01*
X209983381Y-106383401D01*
X210157712Y-106476583D01*
X210310515Y-106601985D01*
X210435917Y-106754788D01*
X210529099Y-106929119D01*
X210586480Y-107118280D01*
X210605855Y-107315000D01*
X210586480Y-107511720D01*
X210529099Y-107700881D01*
X210435917Y-107875212D01*
X210310515Y-108028015D01*
X210157712Y-108153417D01*
X209983381Y-108246599D01*
X209794220Y-108303980D01*
X209695936Y-108313660D01*
X209646795Y-108318500D01*
X209453205Y-108318500D01*
X209404064Y-108313660D01*
X209305780Y-108303980D01*
X209116619Y-108246599D01*
X208942288Y-108153417D01*
X208789485Y-108028015D01*
X208664083Y-107875212D01*
X208570901Y-107700881D01*
X208513520Y-107511720D01*
X208494145Y-107315000D01*
X208513520Y-107118280D01*
X208570901Y-106929119D01*
X208664083Y-106754788D01*
X208789485Y-106601985D01*
X208942288Y-106476583D01*
X209116619Y-106383401D01*
X209305780Y-106326020D01*
X209404064Y-106316340D01*
X209453205Y-106311500D01*
X209646795Y-106311500D01*
X209695936Y-106316340D01*
X209695936Y-106316340D01*
G37*
G36*
X165456000Y-107036000D02*
G01*
X163804000Y-107036000D01*
X163804000Y-105634000D01*
X165456000Y-105634000D01*
X165456000Y-107036000D01*
X165456000Y-107036000D01*
G37*
G36*
X157506000Y-107036000D02*
G01*
X155854000Y-107036000D01*
X155854000Y-105634000D01*
X157506000Y-105634000D01*
X157506000Y-107036000D01*
X157506000Y-107036000D01*
G37*
G36*
X150605443Y-105150519D02*
G01*
X150671627Y-105157037D01*
X150841466Y-105208557D01*
X150997991Y-105292222D01*
X151033729Y-105321552D01*
X151135186Y-105404814D01*
X151203466Y-105488015D01*
X151247778Y-105542009D01*
X151331443Y-105698534D01*
X151382963Y-105868373D01*
X151400359Y-106045000D01*
X151382963Y-106221627D01*
X151331443Y-106391466D01*
X151247778Y-106547991D01*
X151218448Y-106583729D01*
X151135186Y-106685186D01*
X151050374Y-106754788D01*
X150997991Y-106797778D01*
X150841466Y-106881443D01*
X150671627Y-106932963D01*
X150605442Y-106939482D01*
X150539260Y-106946000D01*
X150450740Y-106946000D01*
X150384558Y-106939482D01*
X150318373Y-106932963D01*
X150148534Y-106881443D01*
X149992009Y-106797778D01*
X149939626Y-106754788D01*
X149854814Y-106685186D01*
X149771552Y-106583729D01*
X149742222Y-106547991D01*
X149658557Y-106391466D01*
X149607037Y-106221627D01*
X149589641Y-106045000D01*
X149607037Y-105868373D01*
X149658557Y-105698534D01*
X149742222Y-105542009D01*
X149786534Y-105488015D01*
X149854814Y-105404814D01*
X149956271Y-105321552D01*
X149992009Y-105292222D01*
X150148534Y-105208557D01*
X150318373Y-105157037D01*
X150384558Y-105150518D01*
X150450740Y-105144000D01*
X150539260Y-105144000D01*
X150605443Y-105150519D01*
X150605443Y-105150519D01*
G37*
G36*
X171501000Y-106766000D02*
G01*
X168899000Y-106766000D01*
X168899000Y-105664000D01*
X171501000Y-105664000D01*
X171501000Y-106766000D01*
X171501000Y-106766000D01*
G37*
G36*
X186701000Y-106766000D02*
G01*
X184099000Y-106766000D01*
X184099000Y-105664000D01*
X186701000Y-105664000D01*
X186701000Y-106766000D01*
X186701000Y-106766000D01*
G37*
G36*
X209695936Y-103776340D02*
G01*
X209794220Y-103786020D01*
X209983381Y-103843401D01*
X210157712Y-103936583D01*
X210310515Y-104061985D01*
X210435917Y-104214788D01*
X210529099Y-104389119D01*
X210586480Y-104578280D01*
X210605855Y-104775000D01*
X210586480Y-104971720D01*
X210529099Y-105160881D01*
X210435917Y-105335212D01*
X210310515Y-105488015D01*
X210157712Y-105613417D01*
X209983381Y-105706599D01*
X209794220Y-105763980D01*
X209695936Y-105773660D01*
X209646795Y-105778500D01*
X209453205Y-105778500D01*
X209404064Y-105773660D01*
X209305780Y-105763980D01*
X209116619Y-105706599D01*
X208942288Y-105613417D01*
X208789485Y-105488015D01*
X208664083Y-105335212D01*
X208570901Y-105160881D01*
X208513520Y-104971720D01*
X208494145Y-104775000D01*
X208513520Y-104578280D01*
X208570901Y-104389119D01*
X208664083Y-104214788D01*
X208789485Y-104061985D01*
X208942288Y-103936583D01*
X209116619Y-103843401D01*
X209305780Y-103786020D01*
X209404064Y-103776340D01*
X209453205Y-103771500D01*
X209646795Y-103771500D01*
X209695936Y-103776340D01*
X209695936Y-103776340D01*
G37*
G36*
X186701000Y-104766000D02*
G01*
X184099000Y-104766000D01*
X184099000Y-103664000D01*
X186701000Y-103664000D01*
X186701000Y-104766000D01*
X186701000Y-104766000D01*
G37*
G36*
X171501000Y-104766000D02*
G01*
X168899000Y-104766000D01*
X168899000Y-103664000D01*
X171501000Y-103664000D01*
X171501000Y-104766000D01*
X171501000Y-104766000D01*
G37*
G36*
X150605442Y-102610518D02*
G01*
X150671627Y-102617037D01*
X150841466Y-102668557D01*
X150997991Y-102752222D01*
X151014779Y-102766000D01*
X151135186Y-102864814D01*
X151218448Y-102966271D01*
X151247778Y-103002009D01*
X151331443Y-103158534D01*
X151382963Y-103328373D01*
X151400359Y-103505000D01*
X151382963Y-103681627D01*
X151331443Y-103851466D01*
X151247778Y-104007991D01*
X151218448Y-104043729D01*
X151135186Y-104145186D01*
X151050374Y-104214788D01*
X150997991Y-104257778D01*
X150841466Y-104341443D01*
X150671627Y-104392963D01*
X150605442Y-104399482D01*
X150539260Y-104406000D01*
X150450740Y-104406000D01*
X150384558Y-104399482D01*
X150318373Y-104392963D01*
X150148534Y-104341443D01*
X149992009Y-104257778D01*
X149939626Y-104214788D01*
X149854814Y-104145186D01*
X149771552Y-104043729D01*
X149742222Y-104007991D01*
X149658557Y-103851466D01*
X149607037Y-103681627D01*
X149589641Y-103505000D01*
X149607037Y-103328373D01*
X149658557Y-103158534D01*
X149742222Y-103002009D01*
X149771552Y-102966271D01*
X149854814Y-102864814D01*
X149975221Y-102766000D01*
X149992009Y-102752222D01*
X150148534Y-102668557D01*
X150318373Y-102617037D01*
X150384558Y-102610518D01*
X150450740Y-102604000D01*
X150539260Y-102604000D01*
X150605442Y-102610518D01*
X150605442Y-102610518D01*
G37*
G36*
X186701000Y-102766000D02*
G01*
X184099000Y-102766000D01*
X184099000Y-101664000D01*
X186701000Y-101664000D01*
X186701000Y-102766000D01*
X186701000Y-102766000D01*
G37*
G36*
X171501000Y-102766000D02*
G01*
X168899000Y-102766000D01*
X168899000Y-101664000D01*
X171501000Y-101664000D01*
X171501000Y-102766000D01*
X171501000Y-102766000D01*
G37*
G36*
X157506000Y-102646000D02*
G01*
X155854000Y-102646000D01*
X155854000Y-101244000D01*
X157506000Y-101244000D01*
X157506000Y-102646000D01*
X157506000Y-102646000D01*
G37*
G36*
X165456000Y-102646000D02*
G01*
X163804000Y-102646000D01*
X163804000Y-101244000D01*
X165456000Y-101244000D01*
X165456000Y-102646000D01*
X165456000Y-102646000D01*
G37*
G36*
X209768674Y-99583465D02*
G01*
X209806367Y-99594899D01*
X209841103Y-99613466D01*
X209871548Y-99638452D01*
X209896534Y-99668897D01*
X209915101Y-99703633D01*
X209926535Y-99741326D01*
X209931000Y-99786661D01*
X209931000Y-100873339D01*
X209926535Y-100918674D01*
X209915101Y-100956367D01*
X209896534Y-100991103D01*
X209871548Y-101021548D01*
X209841103Y-101046534D01*
X209806367Y-101065101D01*
X209768674Y-101076535D01*
X209723339Y-101081000D01*
X208886661Y-101081000D01*
X208841326Y-101076535D01*
X208803633Y-101065101D01*
X208768897Y-101046534D01*
X208738452Y-101021548D01*
X208713466Y-100991103D01*
X208694899Y-100956367D01*
X208683465Y-100918674D01*
X208679000Y-100873339D01*
X208679000Y-99786661D01*
X208683465Y-99741326D01*
X208694899Y-99703633D01*
X208713466Y-99668897D01*
X208738452Y-99638452D01*
X208768897Y-99613466D01*
X208803633Y-99594899D01*
X208841326Y-99583465D01*
X208886661Y-99579000D01*
X209723339Y-99579000D01*
X209768674Y-99583465D01*
X209768674Y-99583465D01*
G37*
G36*
X207718674Y-99583465D02*
G01*
X207756367Y-99594899D01*
X207791103Y-99613466D01*
X207821548Y-99638452D01*
X207846534Y-99668897D01*
X207865101Y-99703633D01*
X207876535Y-99741326D01*
X207881000Y-99786661D01*
X207881000Y-100873339D01*
X207876535Y-100918674D01*
X207865101Y-100956367D01*
X207846534Y-100991103D01*
X207821548Y-101021548D01*
X207791103Y-101046534D01*
X207756367Y-101065101D01*
X207718674Y-101076535D01*
X207673339Y-101081000D01*
X206836661Y-101081000D01*
X206791326Y-101076535D01*
X206753633Y-101065101D01*
X206718897Y-101046534D01*
X206688452Y-101021548D01*
X206663466Y-100991103D01*
X206644899Y-100956367D01*
X206633465Y-100918674D01*
X206629000Y-100873339D01*
X206629000Y-99786661D01*
X206633465Y-99741326D01*
X206644899Y-99703633D01*
X206663466Y-99668897D01*
X206688452Y-99638452D01*
X206718897Y-99613466D01*
X206753633Y-99594899D01*
X206791326Y-99583465D01*
X206836661Y-99579000D01*
X207673339Y-99579000D01*
X207718674Y-99583465D01*
X207718674Y-99583465D01*
G37*
G36*
X186701000Y-100766000D02*
G01*
X184099000Y-100766000D01*
X184099000Y-99664000D01*
X186701000Y-99664000D01*
X186701000Y-100766000D01*
X186701000Y-100766000D01*
G37*
G36*
X171501000Y-100766000D02*
G01*
X168899000Y-100766000D01*
X168899000Y-99664000D01*
X171501000Y-99664000D01*
X171501000Y-100766000D01*
X171501000Y-100766000D01*
G37*
G36*
X167593674Y-99463465D02*
G01*
X167631367Y-99474899D01*
X167666103Y-99493466D01*
X167696548Y-99518452D01*
X167721534Y-99548897D01*
X167740101Y-99583633D01*
X167751535Y-99621326D01*
X167756000Y-99666661D01*
X167756000Y-100503339D01*
X167751535Y-100548674D01*
X167740101Y-100586367D01*
X167721534Y-100621103D01*
X167696548Y-100651548D01*
X167666103Y-100676534D01*
X167631367Y-100695101D01*
X167593674Y-100706535D01*
X167548339Y-100711000D01*
X166461661Y-100711000D01*
X166416326Y-100706535D01*
X166378633Y-100695101D01*
X166343897Y-100676534D01*
X166313452Y-100651548D01*
X166288466Y-100621103D01*
X166269899Y-100586367D01*
X166258465Y-100548674D01*
X166254000Y-100503339D01*
X166254000Y-99666661D01*
X166258465Y-99621326D01*
X166269899Y-99583633D01*
X166288466Y-99548897D01*
X166313452Y-99518452D01*
X166343897Y-99493466D01*
X166378633Y-99474899D01*
X166416326Y-99463465D01*
X166461661Y-99459000D01*
X167548339Y-99459000D01*
X167593674Y-99463465D01*
X167593674Y-99463465D01*
G37*
G36*
X151983674Y-98948465D02*
G01*
X152021367Y-98959899D01*
X152056103Y-98978466D01*
X152086548Y-99003452D01*
X152111534Y-99033897D01*
X152130101Y-99068633D01*
X152141535Y-99106326D01*
X152146000Y-99151661D01*
X152146000Y-100238339D01*
X152141535Y-100283674D01*
X152130101Y-100321367D01*
X152111534Y-100356103D01*
X152086548Y-100386548D01*
X152056103Y-100411534D01*
X152021367Y-100430101D01*
X151983674Y-100441535D01*
X151938339Y-100446000D01*
X151101661Y-100446000D01*
X151056326Y-100441535D01*
X151018633Y-100430101D01*
X150983897Y-100411534D01*
X150953452Y-100386548D01*
X150928466Y-100356103D01*
X150909899Y-100321367D01*
X150898465Y-100283674D01*
X150894000Y-100238339D01*
X150894000Y-99151661D01*
X150898465Y-99106326D01*
X150909899Y-99068633D01*
X150928466Y-99033897D01*
X150953452Y-99003452D01*
X150983897Y-98978466D01*
X151018633Y-98959899D01*
X151056326Y-98948465D01*
X151101661Y-98944000D01*
X151938339Y-98944000D01*
X151983674Y-98948465D01*
X151983674Y-98948465D01*
G37*
G36*
X149933674Y-98948465D02*
G01*
X149971367Y-98959899D01*
X150006103Y-98978466D01*
X150036548Y-99003452D01*
X150061534Y-99033897D01*
X150080101Y-99068633D01*
X150091535Y-99106326D01*
X150096000Y-99151661D01*
X150096000Y-100238339D01*
X150091535Y-100283674D01*
X150080101Y-100321367D01*
X150061534Y-100356103D01*
X150036548Y-100386548D01*
X150006103Y-100411534D01*
X149971367Y-100430101D01*
X149933674Y-100441535D01*
X149888339Y-100446000D01*
X149051661Y-100446000D01*
X149006326Y-100441535D01*
X148968633Y-100430101D01*
X148933897Y-100411534D01*
X148903452Y-100386548D01*
X148878466Y-100356103D01*
X148859899Y-100321367D01*
X148848465Y-100283674D01*
X148844000Y-100238339D01*
X148844000Y-99151661D01*
X148848465Y-99106326D01*
X148859899Y-99068633D01*
X148878466Y-99033897D01*
X148903452Y-99003452D01*
X148933897Y-98978466D01*
X148968633Y-98959899D01*
X149006326Y-98948465D01*
X149051661Y-98944000D01*
X149888339Y-98944000D01*
X149933674Y-98948465D01*
X149933674Y-98948465D01*
G37*
G36*
X216801000Y-99326000D02*
G01*
X214999000Y-99326000D01*
X214999000Y-97524000D01*
X216801000Y-97524000D01*
X216801000Y-99326000D01*
X216801000Y-99326000D01*
G37*
G36*
X186701000Y-98766000D02*
G01*
X184099000Y-98766000D01*
X184099000Y-97664000D01*
X186701000Y-97664000D01*
X186701000Y-98766000D01*
X186701000Y-98766000D01*
G37*
G36*
X171501000Y-98766000D02*
G01*
X168899000Y-98766000D01*
X168899000Y-97664000D01*
X171501000Y-97664000D01*
X171501000Y-98766000D01*
X171501000Y-98766000D01*
G37*
G36*
X167593674Y-97413465D02*
G01*
X167631367Y-97424899D01*
X167666103Y-97443466D01*
X167696548Y-97468452D01*
X167721534Y-97498897D01*
X167740101Y-97533633D01*
X167751535Y-97571326D01*
X167756000Y-97616661D01*
X167756000Y-98453339D01*
X167751535Y-98498674D01*
X167740101Y-98536367D01*
X167721534Y-98571103D01*
X167696548Y-98601548D01*
X167666103Y-98626534D01*
X167631367Y-98645101D01*
X167593674Y-98656535D01*
X167548339Y-98661000D01*
X166461661Y-98661000D01*
X166416326Y-98656535D01*
X166378633Y-98645101D01*
X166343897Y-98626534D01*
X166313452Y-98601548D01*
X166288466Y-98571103D01*
X166269899Y-98536367D01*
X166258465Y-98498674D01*
X166254000Y-98453339D01*
X166254000Y-97616661D01*
X166258465Y-97571326D01*
X166269899Y-97533633D01*
X166288466Y-97498897D01*
X166313452Y-97468452D01*
X166343897Y-97443466D01*
X166378633Y-97424899D01*
X166416326Y-97413465D01*
X166461661Y-97409000D01*
X167548339Y-97409000D01*
X167593674Y-97413465D01*
X167593674Y-97413465D01*
G37*
G36*
X157506000Y-98146000D02*
G01*
X155854000Y-98146000D01*
X155854000Y-96744000D01*
X157506000Y-96744000D01*
X157506000Y-98146000D01*
X157506000Y-98146000D01*
G37*
G36*
X165456000Y-98146000D02*
G01*
X163804000Y-98146000D01*
X163804000Y-96744000D01*
X165456000Y-96744000D01*
X165456000Y-98146000D01*
X165456000Y-98146000D01*
G37*
G36*
X149933674Y-96408465D02*
G01*
X149971367Y-96419899D01*
X150006103Y-96438466D01*
X150036548Y-96463452D01*
X150061534Y-96493897D01*
X150080101Y-96528633D01*
X150091535Y-96566326D01*
X150096000Y-96611661D01*
X150096000Y-97698339D01*
X150091535Y-97743674D01*
X150080101Y-97781367D01*
X150061534Y-97816103D01*
X150036548Y-97846548D01*
X150006103Y-97871534D01*
X149971367Y-97890101D01*
X149933674Y-97901535D01*
X149888339Y-97906000D01*
X149051661Y-97906000D01*
X149006326Y-97901535D01*
X148968633Y-97890101D01*
X148933897Y-97871534D01*
X148903452Y-97846548D01*
X148878466Y-97816103D01*
X148859899Y-97781367D01*
X148848465Y-97743674D01*
X148844000Y-97698339D01*
X148844000Y-96611661D01*
X148848465Y-96566326D01*
X148859899Y-96528633D01*
X148878466Y-96493897D01*
X148903452Y-96463452D01*
X148933897Y-96438466D01*
X148968633Y-96419899D01*
X149006326Y-96408465D01*
X149051661Y-96404000D01*
X149888339Y-96404000D01*
X149933674Y-96408465D01*
X149933674Y-96408465D01*
G37*
G36*
X151983674Y-96408465D02*
G01*
X152021367Y-96419899D01*
X152056103Y-96438466D01*
X152086548Y-96463452D01*
X152111534Y-96493897D01*
X152130101Y-96528633D01*
X152141535Y-96566326D01*
X152146000Y-96611661D01*
X152146000Y-97698339D01*
X152141535Y-97743674D01*
X152130101Y-97781367D01*
X152111534Y-97816103D01*
X152086548Y-97846548D01*
X152056103Y-97871534D01*
X152021367Y-97890101D01*
X151983674Y-97901535D01*
X151938339Y-97906000D01*
X151101661Y-97906000D01*
X151056326Y-97901535D01*
X151018633Y-97890101D01*
X150983897Y-97871534D01*
X150953452Y-97846548D01*
X150928466Y-97816103D01*
X150909899Y-97781367D01*
X150898465Y-97743674D01*
X150894000Y-97698339D01*
X150894000Y-96611661D01*
X150898465Y-96566326D01*
X150909899Y-96528633D01*
X150928466Y-96493897D01*
X150953452Y-96463452D01*
X150983897Y-96438466D01*
X151018633Y-96419899D01*
X151056326Y-96408465D01*
X151101661Y-96404000D01*
X151938339Y-96404000D01*
X151983674Y-96408465D01*
X151983674Y-96408465D01*
G37*
G36*
X210601000Y-96888500D02*
G01*
X208499000Y-96888500D01*
X208499000Y-94881500D01*
X210601000Y-94881500D01*
X210601000Y-96888500D01*
X210601000Y-96888500D01*
G37*
G36*
X216010443Y-94990519D02*
G01*
X216076627Y-94997037D01*
X216246466Y-95048557D01*
X216402991Y-95132222D01*
X216434814Y-95158339D01*
X216540186Y-95244814D01*
X216601996Y-95320131D01*
X216652778Y-95382009D01*
X216736443Y-95538534D01*
X216787963Y-95708373D01*
X216805359Y-95885000D01*
X216787963Y-96061627D01*
X216736443Y-96231466D01*
X216652778Y-96387991D01*
X216635975Y-96408465D01*
X216540186Y-96525186D01*
X216438729Y-96608448D01*
X216402991Y-96637778D01*
X216246466Y-96721443D01*
X216076627Y-96772963D01*
X216010442Y-96779482D01*
X215944260Y-96786000D01*
X215855740Y-96786000D01*
X215789558Y-96779482D01*
X215723373Y-96772963D01*
X215553534Y-96721443D01*
X215397009Y-96637778D01*
X215361271Y-96608448D01*
X215259814Y-96525186D01*
X215164025Y-96408465D01*
X215147222Y-96387991D01*
X215063557Y-96231466D01*
X215012037Y-96061627D01*
X214994641Y-95885000D01*
X215012037Y-95708373D01*
X215063557Y-95538534D01*
X215147222Y-95382009D01*
X215198004Y-95320131D01*
X215259814Y-95244814D01*
X215365186Y-95158339D01*
X215397009Y-95132222D01*
X215553534Y-95048557D01*
X215723373Y-94997037D01*
X215789557Y-94990519D01*
X215855740Y-94984000D01*
X215944260Y-94984000D01*
X216010443Y-94990519D01*
X216010443Y-94990519D01*
G37*
G36*
X185493674Y-94503465D02*
G01*
X185531367Y-94514899D01*
X185566103Y-94533466D01*
X185596548Y-94558452D01*
X185621534Y-94588897D01*
X185640101Y-94623633D01*
X185651535Y-94661326D01*
X185656000Y-94706661D01*
X185656000Y-95793339D01*
X185651535Y-95838674D01*
X185640101Y-95876367D01*
X185621534Y-95911103D01*
X185596548Y-95941548D01*
X185566103Y-95966534D01*
X185531367Y-95985101D01*
X185493674Y-95996535D01*
X185448339Y-96001000D01*
X184611661Y-96001000D01*
X184566326Y-95996535D01*
X184528633Y-95985101D01*
X184493897Y-95966534D01*
X184463452Y-95941548D01*
X184438466Y-95911103D01*
X184419899Y-95876367D01*
X184408465Y-95838674D01*
X184404000Y-95793339D01*
X184404000Y-94706661D01*
X184408465Y-94661326D01*
X184419899Y-94623633D01*
X184438466Y-94588897D01*
X184463452Y-94558452D01*
X184493897Y-94533466D01*
X184528633Y-94514899D01*
X184566326Y-94503465D01*
X184611661Y-94499000D01*
X185448339Y-94499000D01*
X185493674Y-94503465D01*
X185493674Y-94503465D01*
G37*
G36*
X187543674Y-94503465D02*
G01*
X187581367Y-94514899D01*
X187616103Y-94533466D01*
X187646548Y-94558452D01*
X187671534Y-94588897D01*
X187690101Y-94623633D01*
X187701535Y-94661326D01*
X187706000Y-94706661D01*
X187706000Y-95793339D01*
X187701535Y-95838674D01*
X187690101Y-95876367D01*
X187671534Y-95911103D01*
X187646548Y-95941548D01*
X187616103Y-95966534D01*
X187581367Y-95985101D01*
X187543674Y-95996535D01*
X187498339Y-96001000D01*
X186661661Y-96001000D01*
X186616326Y-95996535D01*
X186578633Y-95985101D01*
X186543897Y-95966534D01*
X186513452Y-95941548D01*
X186488466Y-95911103D01*
X186469899Y-95876367D01*
X186458465Y-95838674D01*
X186454000Y-95793339D01*
X186454000Y-94706661D01*
X186458465Y-94661326D01*
X186469899Y-94623633D01*
X186488466Y-94588897D01*
X186513452Y-94558452D01*
X186543897Y-94533466D01*
X186578633Y-94514899D01*
X186616326Y-94503465D01*
X186661661Y-94499000D01*
X187498339Y-94499000D01*
X187543674Y-94503465D01*
X187543674Y-94503465D01*
G37*
G36*
X149933674Y-93868465D02*
G01*
X149971367Y-93879899D01*
X150006103Y-93898466D01*
X150036548Y-93923452D01*
X150061534Y-93953897D01*
X150080101Y-93988633D01*
X150091535Y-94026326D01*
X150096000Y-94071661D01*
X150096000Y-95158339D01*
X150091535Y-95203674D01*
X150080101Y-95241367D01*
X150061534Y-95276103D01*
X150036548Y-95306548D01*
X150006103Y-95331534D01*
X149971367Y-95350101D01*
X149933674Y-95361535D01*
X149888339Y-95366000D01*
X149051661Y-95366000D01*
X149006326Y-95361535D01*
X148968633Y-95350101D01*
X148933897Y-95331534D01*
X148903452Y-95306548D01*
X148878466Y-95276103D01*
X148859899Y-95241367D01*
X148848465Y-95203674D01*
X148844000Y-95158339D01*
X148844000Y-94071661D01*
X148848465Y-94026326D01*
X148859899Y-93988633D01*
X148878466Y-93953897D01*
X148903452Y-93923452D01*
X148933897Y-93898466D01*
X148968633Y-93879899D01*
X149006326Y-93868465D01*
X149051661Y-93864000D01*
X149888339Y-93864000D01*
X149933674Y-93868465D01*
X149933674Y-93868465D01*
G37*
G36*
X151983674Y-93868465D02*
G01*
X152021367Y-93879899D01*
X152056103Y-93898466D01*
X152086548Y-93923452D01*
X152111534Y-93953897D01*
X152130101Y-93988633D01*
X152141535Y-94026326D01*
X152146000Y-94071661D01*
X152146000Y-95158339D01*
X152141535Y-95203674D01*
X152130101Y-95241367D01*
X152111534Y-95276103D01*
X152086548Y-95306548D01*
X152056103Y-95331534D01*
X152021367Y-95350101D01*
X151983674Y-95361535D01*
X151938339Y-95366000D01*
X151101661Y-95366000D01*
X151056326Y-95361535D01*
X151018633Y-95350101D01*
X150983897Y-95331534D01*
X150953452Y-95306548D01*
X150928466Y-95276103D01*
X150909899Y-95241367D01*
X150898465Y-95203674D01*
X150894000Y-95158339D01*
X150894000Y-94071661D01*
X150898465Y-94026326D01*
X150909899Y-93988633D01*
X150928466Y-93953897D01*
X150953452Y-93923452D01*
X150983897Y-93898466D01*
X151018633Y-93879899D01*
X151056326Y-93868465D01*
X151101661Y-93864000D01*
X151938339Y-93864000D01*
X151983674Y-93868465D01*
X151983674Y-93868465D01*
G37*
G36*
X193066669Y-91552686D02*
G01*
X193243058Y-91570059D01*
X193582548Y-91673042D01*
X193582550Y-91673043D01*
X193895422Y-91840277D01*
X194169661Y-92065339D01*
X194394723Y-92339578D01*
X194450538Y-92444000D01*
X194561958Y-92652452D01*
X194664941Y-92991942D01*
X194699714Y-93345000D01*
X194664941Y-93698058D01*
X194561958Y-94037548D01*
X194561957Y-94037550D01*
X194394723Y-94350422D01*
X194169661Y-94624661D01*
X193895422Y-94849723D01*
X193582550Y-95016957D01*
X193582548Y-95016958D01*
X193243058Y-95119941D01*
X193118376Y-95132221D01*
X192978476Y-95146000D01*
X192801524Y-95146000D01*
X192661624Y-95132221D01*
X192536942Y-95119941D01*
X192197452Y-95016958D01*
X192197450Y-95016957D01*
X191884578Y-94849723D01*
X191610339Y-94624661D01*
X191385277Y-94350422D01*
X191218043Y-94037550D01*
X191218042Y-94037548D01*
X191115059Y-93698058D01*
X191080286Y-93345000D01*
X191115059Y-92991942D01*
X191218042Y-92652452D01*
X191329462Y-92444000D01*
X191385277Y-92339578D01*
X191610339Y-92065339D01*
X191884578Y-91840277D01*
X192197450Y-91673043D01*
X192197452Y-91673042D01*
X192536942Y-91570059D01*
X192713331Y-91552686D01*
X192801524Y-91544000D01*
X192978476Y-91544000D01*
X193066669Y-91552686D01*
X193066669Y-91552686D01*
G37*
G36*
X175848674Y-93748465D02*
G01*
X175886367Y-93759899D01*
X175921103Y-93778466D01*
X175951548Y-93803452D01*
X175976534Y-93833897D01*
X175995101Y-93868633D01*
X176006535Y-93906326D01*
X176011000Y-93951661D01*
X176011000Y-94788339D01*
X176006535Y-94833674D01*
X175995101Y-94871367D01*
X175976534Y-94906103D01*
X175951548Y-94936548D01*
X175921103Y-94961534D01*
X175886367Y-94980101D01*
X175848674Y-94991535D01*
X175803339Y-94996000D01*
X174716661Y-94996000D01*
X174671326Y-94991535D01*
X174633633Y-94980101D01*
X174598897Y-94961534D01*
X174568452Y-94936548D01*
X174543466Y-94906103D01*
X174524899Y-94871367D01*
X174513465Y-94833674D01*
X174509000Y-94788339D01*
X174509000Y-93951661D01*
X174513465Y-93906326D01*
X174524899Y-93868633D01*
X174543466Y-93833897D01*
X174568452Y-93803452D01*
X174598897Y-93778466D01*
X174633633Y-93759899D01*
X174671326Y-93748465D01*
X174716661Y-93744000D01*
X175803339Y-93744000D01*
X175848674Y-93748465D01*
X175848674Y-93748465D01*
G37*
G36*
X182198674Y-93748465D02*
G01*
X182236367Y-93759899D01*
X182271103Y-93778466D01*
X182301548Y-93803452D01*
X182326534Y-93833897D01*
X182345101Y-93868633D01*
X182356535Y-93906326D01*
X182361000Y-93951661D01*
X182361000Y-94788339D01*
X182356535Y-94833674D01*
X182345101Y-94871367D01*
X182326534Y-94906103D01*
X182301548Y-94936548D01*
X182271103Y-94961534D01*
X182236367Y-94980101D01*
X182198674Y-94991535D01*
X182153339Y-94996000D01*
X181066661Y-94996000D01*
X181021326Y-94991535D01*
X180983633Y-94980101D01*
X180948897Y-94961534D01*
X180918452Y-94936548D01*
X180893466Y-94906103D01*
X180874899Y-94871367D01*
X180863465Y-94833674D01*
X180859000Y-94788339D01*
X180859000Y-93951661D01*
X180863465Y-93906326D01*
X180874899Y-93868633D01*
X180893466Y-93833897D01*
X180918452Y-93803452D01*
X180948897Y-93778466D01*
X180983633Y-93759899D01*
X181021326Y-93748465D01*
X181066661Y-93744000D01*
X182153339Y-93744000D01*
X182198674Y-93748465D01*
X182198674Y-93748465D01*
G37*
G36*
X173308674Y-93748465D02*
G01*
X173346367Y-93759899D01*
X173381103Y-93778466D01*
X173411548Y-93803452D01*
X173436534Y-93833897D01*
X173455101Y-93868633D01*
X173466535Y-93906326D01*
X173471000Y-93951661D01*
X173471000Y-94788339D01*
X173466535Y-94833674D01*
X173455101Y-94871367D01*
X173436534Y-94906103D01*
X173411548Y-94936548D01*
X173381103Y-94961534D01*
X173346367Y-94980101D01*
X173308674Y-94991535D01*
X173263339Y-94996000D01*
X172176661Y-94996000D01*
X172131326Y-94991535D01*
X172093633Y-94980101D01*
X172058897Y-94961534D01*
X172028452Y-94936548D01*
X172003466Y-94906103D01*
X171984899Y-94871367D01*
X171973465Y-94833674D01*
X171969000Y-94788339D01*
X171969000Y-93951661D01*
X171973465Y-93906326D01*
X171984899Y-93868633D01*
X172003466Y-93833897D01*
X172028452Y-93803452D01*
X172058897Y-93778466D01*
X172093633Y-93759899D01*
X172131326Y-93748465D01*
X172176661Y-93744000D01*
X173263339Y-93744000D01*
X173308674Y-93748465D01*
X173308674Y-93748465D01*
G37*
G36*
X170768674Y-93748465D02*
G01*
X170806367Y-93759899D01*
X170841103Y-93778466D01*
X170871548Y-93803452D01*
X170896534Y-93833897D01*
X170915101Y-93868633D01*
X170926535Y-93906326D01*
X170931000Y-93951661D01*
X170931000Y-94788339D01*
X170926535Y-94833674D01*
X170915101Y-94871367D01*
X170896534Y-94906103D01*
X170871548Y-94936548D01*
X170841103Y-94961534D01*
X170806367Y-94980101D01*
X170768674Y-94991535D01*
X170723339Y-94996000D01*
X169636661Y-94996000D01*
X169591326Y-94991535D01*
X169553633Y-94980101D01*
X169518897Y-94961534D01*
X169488452Y-94936548D01*
X169463466Y-94906103D01*
X169444899Y-94871367D01*
X169433465Y-94833674D01*
X169429000Y-94788339D01*
X169429000Y-93951661D01*
X169433465Y-93906326D01*
X169444899Y-93868633D01*
X169463466Y-93833897D01*
X169488452Y-93803452D01*
X169518897Y-93778466D01*
X169553633Y-93759899D01*
X169591326Y-93748465D01*
X169636661Y-93744000D01*
X170723339Y-93744000D01*
X170768674Y-93748465D01*
X170768674Y-93748465D01*
G37*
G36*
X155648674Y-93233465D02*
G01*
X155686367Y-93244899D01*
X155721103Y-93263466D01*
X155751548Y-93288452D01*
X155776534Y-93318897D01*
X155795101Y-93353633D01*
X155806535Y-93391326D01*
X155811000Y-93436661D01*
X155811000Y-94523339D01*
X155806535Y-94568674D01*
X155795101Y-94606367D01*
X155776534Y-94641103D01*
X155751548Y-94671548D01*
X155721103Y-94696534D01*
X155686367Y-94715101D01*
X155648674Y-94726535D01*
X155603339Y-94731000D01*
X154766661Y-94731000D01*
X154721326Y-94726535D01*
X154683633Y-94715101D01*
X154648897Y-94696534D01*
X154618452Y-94671548D01*
X154593466Y-94641103D01*
X154574899Y-94606367D01*
X154563465Y-94568674D01*
X154559000Y-94523339D01*
X154559000Y-93436661D01*
X154563465Y-93391326D01*
X154574899Y-93353633D01*
X154593466Y-93318897D01*
X154618452Y-93288452D01*
X154648897Y-93263466D01*
X154683633Y-93244899D01*
X154721326Y-93233465D01*
X154766661Y-93229000D01*
X155603339Y-93229000D01*
X155648674Y-93233465D01*
X155648674Y-93233465D01*
G37*
G36*
X157698674Y-93233465D02*
G01*
X157736367Y-93244899D01*
X157771103Y-93263466D01*
X157801548Y-93288452D01*
X157826534Y-93318897D01*
X157845101Y-93353633D01*
X157856535Y-93391326D01*
X157861000Y-93436661D01*
X157861000Y-94523339D01*
X157856535Y-94568674D01*
X157845101Y-94606367D01*
X157826534Y-94641103D01*
X157801548Y-94671548D01*
X157771103Y-94696534D01*
X157736367Y-94715101D01*
X157698674Y-94726535D01*
X157653339Y-94731000D01*
X156816661Y-94731000D01*
X156771326Y-94726535D01*
X156733633Y-94715101D01*
X156698897Y-94696534D01*
X156668452Y-94671548D01*
X156643466Y-94641103D01*
X156624899Y-94606367D01*
X156613465Y-94568674D01*
X156609000Y-94523339D01*
X156609000Y-93436661D01*
X156613465Y-93391326D01*
X156624899Y-93353633D01*
X156643466Y-93318897D01*
X156668452Y-93288452D01*
X156698897Y-93263466D01*
X156733633Y-93244899D01*
X156771326Y-93233465D01*
X156816661Y-93229000D01*
X157653339Y-93229000D01*
X157698674Y-93233465D01*
X157698674Y-93233465D01*
G37*
G36*
X209695936Y-92346340D02*
G01*
X209794220Y-92356020D01*
X209983381Y-92413401D01*
X210157712Y-92506583D01*
X210310515Y-92631985D01*
X210435917Y-92784788D01*
X210529099Y-92959119D01*
X210586480Y-93148280D01*
X210605855Y-93345000D01*
X210586480Y-93541720D01*
X210529099Y-93730881D01*
X210435917Y-93905212D01*
X210310515Y-94058015D01*
X210157712Y-94183417D01*
X209983381Y-94276599D01*
X209794220Y-94333980D01*
X209695936Y-94343660D01*
X209646795Y-94348500D01*
X209453205Y-94348500D01*
X209404064Y-94343660D01*
X209305780Y-94333980D01*
X209116619Y-94276599D01*
X208942288Y-94183417D01*
X208789485Y-94058015D01*
X208664083Y-93905212D01*
X208570901Y-93730881D01*
X208513520Y-93541720D01*
X208494145Y-93345000D01*
X208513520Y-93148280D01*
X208570901Y-92959119D01*
X208664083Y-92784788D01*
X208789485Y-92631985D01*
X208942288Y-92506583D01*
X209116619Y-92413401D01*
X209305780Y-92356020D01*
X209404064Y-92346340D01*
X209453205Y-92341500D01*
X209646795Y-92341500D01*
X209695936Y-92346340D01*
X209695936Y-92346340D01*
G37*
G36*
X216010443Y-92450519D02*
G01*
X216076627Y-92457037D01*
X216246466Y-92508557D01*
X216402991Y-92592222D01*
X216438729Y-92621552D01*
X216540186Y-92704814D01*
X216623448Y-92806271D01*
X216652778Y-92842009D01*
X216652779Y-92842011D01*
X216732920Y-92991942D01*
X216736443Y-92998534D01*
X216787963Y-93168373D01*
X216805359Y-93345000D01*
X216787963Y-93521627D01*
X216736443Y-93691466D01*
X216736442Y-93691468D01*
X216715375Y-93730881D01*
X216652778Y-93847991D01*
X216638850Y-93864962D01*
X216540186Y-93985186D01*
X216476379Y-94037550D01*
X216402991Y-94097778D01*
X216246466Y-94181443D01*
X216076627Y-94232963D01*
X216010443Y-94239481D01*
X215944260Y-94246000D01*
X215855740Y-94246000D01*
X215789557Y-94239481D01*
X215723373Y-94232963D01*
X215553534Y-94181443D01*
X215397009Y-94097778D01*
X215323621Y-94037550D01*
X215259814Y-93985186D01*
X215161150Y-93864962D01*
X215147222Y-93847991D01*
X215084625Y-93730881D01*
X215063558Y-93691468D01*
X215063557Y-93691466D01*
X215012037Y-93521627D01*
X214994641Y-93345000D01*
X215012037Y-93168373D01*
X215063557Y-92998534D01*
X215067081Y-92991942D01*
X215147221Y-92842011D01*
X215147222Y-92842009D01*
X215176552Y-92806271D01*
X215259814Y-92704814D01*
X215361271Y-92621552D01*
X215397009Y-92592222D01*
X215553534Y-92508557D01*
X215723373Y-92457037D01*
X215789557Y-92450519D01*
X215855740Y-92444000D01*
X215944260Y-92444000D01*
X216010443Y-92450519D01*
X216010443Y-92450519D01*
G37*
G36*
X185493674Y-91963465D02*
G01*
X185531367Y-91974899D01*
X185566103Y-91993466D01*
X185596548Y-92018452D01*
X185621534Y-92048897D01*
X185640101Y-92083633D01*
X185651535Y-92121326D01*
X185656000Y-92166661D01*
X185656000Y-93253339D01*
X185651535Y-93298674D01*
X185640101Y-93336367D01*
X185621534Y-93371103D01*
X185596548Y-93401548D01*
X185566103Y-93426534D01*
X185531367Y-93445101D01*
X185493674Y-93456535D01*
X185448339Y-93461000D01*
X184611661Y-93461000D01*
X184566326Y-93456535D01*
X184528633Y-93445101D01*
X184493897Y-93426534D01*
X184463452Y-93401548D01*
X184438466Y-93371103D01*
X184419899Y-93336367D01*
X184408465Y-93298674D01*
X184404000Y-93253339D01*
X184404000Y-92166661D01*
X184408465Y-92121326D01*
X184419899Y-92083633D01*
X184438466Y-92048897D01*
X184463452Y-92018452D01*
X184493897Y-91993466D01*
X184528633Y-91974899D01*
X184566326Y-91963465D01*
X184611661Y-91959000D01*
X185448339Y-91959000D01*
X185493674Y-91963465D01*
X185493674Y-91963465D01*
G37*
G36*
X187543674Y-91963465D02*
G01*
X187581367Y-91974899D01*
X187616103Y-91993466D01*
X187646548Y-92018452D01*
X187671534Y-92048897D01*
X187690101Y-92083633D01*
X187701535Y-92121326D01*
X187706000Y-92166661D01*
X187706000Y-93253339D01*
X187701535Y-93298674D01*
X187690101Y-93336367D01*
X187671534Y-93371103D01*
X187646548Y-93401548D01*
X187616103Y-93426534D01*
X187581367Y-93445101D01*
X187543674Y-93456535D01*
X187498339Y-93461000D01*
X186661661Y-93461000D01*
X186616326Y-93456535D01*
X186578633Y-93445101D01*
X186543897Y-93426534D01*
X186513452Y-93401548D01*
X186488466Y-93371103D01*
X186469899Y-93336367D01*
X186458465Y-93298674D01*
X186454000Y-93253339D01*
X186454000Y-92166661D01*
X186458465Y-92121326D01*
X186469899Y-92083633D01*
X186488466Y-92048897D01*
X186513452Y-92018452D01*
X186543897Y-91993466D01*
X186578633Y-91974899D01*
X186616326Y-91963465D01*
X186661661Y-91959000D01*
X187498339Y-91959000D01*
X187543674Y-91963465D01*
X187543674Y-91963465D01*
G37*
G36*
X161669487Y-90823996D02*
G01*
X161906253Y-90922068D01*
X161906255Y-90922069D01*
X162119339Y-91064447D01*
X162300553Y-91245661D01*
X162433871Y-91445185D01*
X162442932Y-91458747D01*
X162541004Y-91695513D01*
X162591000Y-91946861D01*
X162591000Y-92203139D01*
X162541004Y-92454487D01*
X162459005Y-92652450D01*
X162442931Y-92691255D01*
X162300553Y-92904339D01*
X162119339Y-93085553D01*
X161906255Y-93227931D01*
X161906254Y-93227932D01*
X161906253Y-93227932D01*
X161669487Y-93326004D01*
X161418139Y-93376000D01*
X161161861Y-93376000D01*
X160910513Y-93326004D01*
X160673747Y-93227932D01*
X160673746Y-93227932D01*
X160673745Y-93227931D01*
X160460661Y-93085553D01*
X160279447Y-92904339D01*
X160137069Y-92691255D01*
X160120995Y-92652450D01*
X160038996Y-92454487D01*
X159989000Y-92203139D01*
X159989000Y-91946861D01*
X160038996Y-91695513D01*
X160137068Y-91458747D01*
X160146130Y-91445185D01*
X160279447Y-91245661D01*
X160460661Y-91064447D01*
X160673745Y-90922069D01*
X160673747Y-90922068D01*
X160910513Y-90823996D01*
X161161861Y-90774000D01*
X161418139Y-90774000D01*
X161669487Y-90823996D01*
X161669487Y-90823996D01*
G37*
G36*
X173308674Y-91698465D02*
G01*
X173346367Y-91709899D01*
X173381103Y-91728466D01*
X173411548Y-91753452D01*
X173436534Y-91783897D01*
X173455101Y-91818633D01*
X173466535Y-91856326D01*
X173471000Y-91901661D01*
X173471000Y-92738339D01*
X173466535Y-92783674D01*
X173455101Y-92821367D01*
X173436534Y-92856103D01*
X173411548Y-92886548D01*
X173381103Y-92911534D01*
X173346367Y-92930101D01*
X173308674Y-92941535D01*
X173263339Y-92946000D01*
X172176661Y-92946000D01*
X172131326Y-92941535D01*
X172093633Y-92930101D01*
X172058897Y-92911534D01*
X172028452Y-92886548D01*
X172003466Y-92856103D01*
X171984899Y-92821367D01*
X171973465Y-92783674D01*
X171969000Y-92738339D01*
X171969000Y-91901661D01*
X171973465Y-91856326D01*
X171984899Y-91818633D01*
X172003466Y-91783897D01*
X172028452Y-91753452D01*
X172058897Y-91728466D01*
X172093633Y-91709899D01*
X172131326Y-91698465D01*
X172176661Y-91694000D01*
X173263339Y-91694000D01*
X173308674Y-91698465D01*
X173308674Y-91698465D01*
G37*
G36*
X175848674Y-91698465D02*
G01*
X175886367Y-91709899D01*
X175921103Y-91728466D01*
X175951548Y-91753452D01*
X175976534Y-91783897D01*
X175995101Y-91818633D01*
X176006535Y-91856326D01*
X176011000Y-91901661D01*
X176011000Y-92738339D01*
X176006535Y-92783674D01*
X175995101Y-92821367D01*
X175976534Y-92856103D01*
X175951548Y-92886548D01*
X175921103Y-92911534D01*
X175886367Y-92930101D01*
X175848674Y-92941535D01*
X175803339Y-92946000D01*
X174716661Y-92946000D01*
X174671326Y-92941535D01*
X174633633Y-92930101D01*
X174598897Y-92911534D01*
X174568452Y-92886548D01*
X174543466Y-92856103D01*
X174524899Y-92821367D01*
X174513465Y-92783674D01*
X174509000Y-92738339D01*
X174509000Y-91901661D01*
X174513465Y-91856326D01*
X174524899Y-91818633D01*
X174543466Y-91783897D01*
X174568452Y-91753452D01*
X174598897Y-91728466D01*
X174633633Y-91709899D01*
X174671326Y-91698465D01*
X174716661Y-91694000D01*
X175803339Y-91694000D01*
X175848674Y-91698465D01*
X175848674Y-91698465D01*
G37*
G36*
X182198674Y-91698465D02*
G01*
X182236367Y-91709899D01*
X182271103Y-91728466D01*
X182301548Y-91753452D01*
X182326534Y-91783897D01*
X182345101Y-91818633D01*
X182356535Y-91856326D01*
X182361000Y-91901661D01*
X182361000Y-92738339D01*
X182356535Y-92783674D01*
X182345101Y-92821367D01*
X182326534Y-92856103D01*
X182301548Y-92886548D01*
X182271103Y-92911534D01*
X182236367Y-92930101D01*
X182198674Y-92941535D01*
X182153339Y-92946000D01*
X181066661Y-92946000D01*
X181021326Y-92941535D01*
X180983633Y-92930101D01*
X180948897Y-92911534D01*
X180918452Y-92886548D01*
X180893466Y-92856103D01*
X180874899Y-92821367D01*
X180863465Y-92783674D01*
X180859000Y-92738339D01*
X180859000Y-91901661D01*
X180863465Y-91856326D01*
X180874899Y-91818633D01*
X180893466Y-91783897D01*
X180918452Y-91753452D01*
X180948897Y-91728466D01*
X180983633Y-91709899D01*
X181021326Y-91698465D01*
X181066661Y-91694000D01*
X182153339Y-91694000D01*
X182198674Y-91698465D01*
X182198674Y-91698465D01*
G37*
G36*
X170768674Y-91698465D02*
G01*
X170806367Y-91709899D01*
X170841103Y-91728466D01*
X170871548Y-91753452D01*
X170896534Y-91783897D01*
X170915101Y-91818633D01*
X170926535Y-91856326D01*
X170931000Y-91901661D01*
X170931000Y-92738339D01*
X170926535Y-92783674D01*
X170915101Y-92821367D01*
X170896534Y-92856103D01*
X170871548Y-92886548D01*
X170841103Y-92911534D01*
X170806367Y-92930101D01*
X170768674Y-92941535D01*
X170723339Y-92946000D01*
X169636661Y-92946000D01*
X169591326Y-92941535D01*
X169553633Y-92930101D01*
X169518897Y-92911534D01*
X169488452Y-92886548D01*
X169463466Y-92856103D01*
X169444899Y-92821367D01*
X169433465Y-92783674D01*
X169429000Y-92738339D01*
X169429000Y-91901661D01*
X169433465Y-91856326D01*
X169444899Y-91818633D01*
X169463466Y-91783897D01*
X169488452Y-91753452D01*
X169518897Y-91728466D01*
X169553633Y-91709899D01*
X169591326Y-91698465D01*
X169636661Y-91694000D01*
X170723339Y-91694000D01*
X170768674Y-91698465D01*
X170768674Y-91698465D01*
G37*
G36*
X209695936Y-89806340D02*
G01*
X209794220Y-89816020D01*
X209983381Y-89873401D01*
X210157712Y-89966583D01*
X210310515Y-90091985D01*
X210435917Y-90244788D01*
X210529099Y-90419119D01*
X210586480Y-90608280D01*
X210605855Y-90805000D01*
X210586480Y-91001720D01*
X210529099Y-91190881D01*
X210435917Y-91365212D01*
X210310515Y-91518015D01*
X210157712Y-91643417D01*
X209983381Y-91736599D01*
X209794220Y-91793980D01*
X209695936Y-91803660D01*
X209646795Y-91808500D01*
X209453205Y-91808500D01*
X209404064Y-91803660D01*
X209305780Y-91793980D01*
X209116619Y-91736599D01*
X208942288Y-91643417D01*
X208789485Y-91518015D01*
X208664083Y-91365212D01*
X208570901Y-91190881D01*
X208513520Y-91001720D01*
X208494145Y-90805000D01*
X208513520Y-90608280D01*
X208570901Y-90419119D01*
X208664083Y-90244788D01*
X208789485Y-90091985D01*
X208942288Y-89966583D01*
X209116619Y-89873401D01*
X209305780Y-89816020D01*
X209404064Y-89806340D01*
X209453205Y-89801500D01*
X209646795Y-89801500D01*
X209695936Y-89806340D01*
X209695936Y-89806340D01*
G37*
G36*
X216010442Y-89910518D02*
G01*
X216076627Y-89917037D01*
X216246466Y-89968557D01*
X216402991Y-90052222D01*
X216438729Y-90081552D01*
X216540186Y-90164814D01*
X216623448Y-90266271D01*
X216652778Y-90302009D01*
X216736443Y-90458534D01*
X216787963Y-90628373D01*
X216805359Y-90805000D01*
X216787963Y-90981627D01*
X216736443Y-91151466D01*
X216652778Y-91307991D01*
X216623448Y-91343729D01*
X216540186Y-91445186D01*
X216451442Y-91518015D01*
X216402991Y-91557778D01*
X216246466Y-91641443D01*
X216076627Y-91692963D01*
X216020763Y-91698465D01*
X215944260Y-91706000D01*
X215855740Y-91706000D01*
X215779237Y-91698465D01*
X215723373Y-91692963D01*
X215553534Y-91641443D01*
X215397009Y-91557778D01*
X215348558Y-91518015D01*
X215259814Y-91445186D01*
X215176552Y-91343729D01*
X215147222Y-91307991D01*
X215063557Y-91151466D01*
X215012037Y-90981627D01*
X214994641Y-90805000D01*
X215012037Y-90628373D01*
X215063557Y-90458534D01*
X215147222Y-90302009D01*
X215176552Y-90266271D01*
X215259814Y-90164814D01*
X215361271Y-90081552D01*
X215397009Y-90052222D01*
X215553534Y-89968557D01*
X215723373Y-89917037D01*
X215789558Y-89910518D01*
X215855740Y-89904000D01*
X215944260Y-89904000D01*
X216010442Y-89910518D01*
X216010442Y-89910518D01*
G37*
G36*
X151509487Y-88203996D02*
G01*
X151746253Y-88302068D01*
X151746255Y-88302069D01*
X151959339Y-88444447D01*
X152140553Y-88625661D01*
X152180014Y-88684718D01*
X152282932Y-88838747D01*
X152381004Y-89075513D01*
X152431000Y-89326861D01*
X152431000Y-89583139D01*
X152381004Y-89834487D01*
X152290815Y-90052221D01*
X152282931Y-90071255D01*
X152140553Y-90284339D01*
X151959339Y-90465553D01*
X151746255Y-90607931D01*
X151746254Y-90607932D01*
X151746253Y-90607932D01*
X151509487Y-90706004D01*
X151258139Y-90756000D01*
X151001861Y-90756000D01*
X150750513Y-90706004D01*
X150513747Y-90607932D01*
X150513746Y-90607932D01*
X150513745Y-90607931D01*
X150300661Y-90465553D01*
X150119447Y-90284339D01*
X149977069Y-90071255D01*
X149969185Y-90052221D01*
X149878996Y-89834487D01*
X149829000Y-89583139D01*
X149829000Y-89326861D01*
X149878996Y-89075513D01*
X149977068Y-88838747D01*
X150079987Y-88684718D01*
X150119447Y-88625661D01*
X150300661Y-88444447D01*
X150513745Y-88302069D01*
X150513747Y-88302068D01*
X150750513Y-88203996D01*
X151001861Y-88154000D01*
X151258139Y-88154000D01*
X151509487Y-88203996D01*
X151509487Y-88203996D01*
G37*
G36*
X187913674Y-88668465D02*
G01*
X187951367Y-88679899D01*
X187986103Y-88698466D01*
X188016548Y-88723452D01*
X188041534Y-88753897D01*
X188060101Y-88788633D01*
X188071535Y-88826326D01*
X188076000Y-88871661D01*
X188076000Y-89708339D01*
X188071535Y-89753674D01*
X188060101Y-89791367D01*
X188041534Y-89826103D01*
X188016548Y-89856548D01*
X187986103Y-89881534D01*
X187951367Y-89900101D01*
X187913674Y-89911535D01*
X187868339Y-89916000D01*
X186781661Y-89916000D01*
X186736326Y-89911535D01*
X186698633Y-89900101D01*
X186663897Y-89881534D01*
X186633452Y-89856548D01*
X186608466Y-89826103D01*
X186589899Y-89791367D01*
X186578465Y-89753674D01*
X186574000Y-89708339D01*
X186574000Y-88871661D01*
X186578465Y-88826326D01*
X186589899Y-88788633D01*
X186608466Y-88753897D01*
X186633452Y-88723452D01*
X186663897Y-88698466D01*
X186698633Y-88679899D01*
X186736326Y-88668465D01*
X186781661Y-88664000D01*
X187868339Y-88664000D01*
X187913674Y-88668465D01*
X187913674Y-88668465D01*
G37*
G36*
X177813562Y-86453181D02*
G01*
X177848481Y-86463774D01*
X177880663Y-86480976D01*
X177908873Y-86504127D01*
X177932024Y-86532337D01*
X177949226Y-86564519D01*
X177959819Y-86599438D01*
X177964000Y-86641895D01*
X177964000Y-87783105D01*
X177959819Y-87825562D01*
X177949226Y-87860481D01*
X177932024Y-87892663D01*
X177908873Y-87920873D01*
X177880663Y-87944024D01*
X177848481Y-87961226D01*
X177813562Y-87971819D01*
X177771105Y-87976000D01*
X176304895Y-87976000D01*
X176262438Y-87971819D01*
X176227519Y-87961226D01*
X176195337Y-87944024D01*
X176167127Y-87920873D01*
X176143976Y-87892663D01*
X176126774Y-87860481D01*
X176116181Y-87825562D01*
X176112000Y-87783105D01*
X176112000Y-86641895D01*
X176116181Y-86599438D01*
X176126774Y-86564519D01*
X176143976Y-86532337D01*
X176167127Y-86504127D01*
X176195337Y-86480976D01*
X176227519Y-86463774D01*
X176262438Y-86453181D01*
X176304895Y-86449000D01*
X177771105Y-86449000D01*
X177813562Y-86453181D01*
X177813562Y-86453181D01*
G37*
G36*
X180353562Y-86453181D02*
G01*
X180388481Y-86463774D01*
X180420663Y-86480976D01*
X180448873Y-86504127D01*
X180472024Y-86532337D01*
X180489226Y-86564519D01*
X180499819Y-86599438D01*
X180504000Y-86641895D01*
X180504000Y-87783105D01*
X180499819Y-87825562D01*
X180489226Y-87860481D01*
X180472024Y-87892663D01*
X180448873Y-87920873D01*
X180420663Y-87944024D01*
X180388481Y-87961226D01*
X180353562Y-87971819D01*
X180311105Y-87976000D01*
X178844895Y-87976000D01*
X178802438Y-87971819D01*
X178767519Y-87961226D01*
X178735337Y-87944024D01*
X178707127Y-87920873D01*
X178683976Y-87892663D01*
X178666774Y-87860481D01*
X178656181Y-87825562D01*
X178652000Y-87783105D01*
X178652000Y-86641895D01*
X178656181Y-86599438D01*
X178666774Y-86564519D01*
X178683976Y-86532337D01*
X178707127Y-86504127D01*
X178735337Y-86480976D01*
X178767519Y-86463774D01*
X178802438Y-86453181D01*
X178844895Y-86449000D01*
X180311105Y-86449000D01*
X180353562Y-86453181D01*
X180353562Y-86453181D01*
G37*
G36*
X187913674Y-86618465D02*
G01*
X187951367Y-86629899D01*
X187986103Y-86648466D01*
X188016548Y-86673452D01*
X188041534Y-86703897D01*
X188060101Y-86738633D01*
X188071535Y-86776326D01*
X188076000Y-86821661D01*
X188076000Y-87658339D01*
X188071535Y-87703674D01*
X188060101Y-87741367D01*
X188041534Y-87776103D01*
X188016548Y-87806548D01*
X187986103Y-87831534D01*
X187951367Y-87850101D01*
X187913674Y-87861535D01*
X187868339Y-87866000D01*
X186781661Y-87866000D01*
X186736326Y-87861535D01*
X186698633Y-87850101D01*
X186663897Y-87831534D01*
X186633452Y-87806548D01*
X186608466Y-87776103D01*
X186589899Y-87741367D01*
X186578465Y-87703674D01*
X186574000Y-87658339D01*
X186574000Y-86821661D01*
X186578465Y-86776326D01*
X186589899Y-86738633D01*
X186608466Y-86703897D01*
X186633452Y-86673452D01*
X186663897Y-86648466D01*
X186698633Y-86629899D01*
X186736326Y-86618465D01*
X186781661Y-86614000D01*
X187868339Y-86614000D01*
X187913674Y-86618465D01*
X187913674Y-86618465D01*
G37*
G36*
X193258674Y-85613465D02*
G01*
X193296367Y-85624899D01*
X193331103Y-85643466D01*
X193361548Y-85668452D01*
X193386534Y-85698897D01*
X193405101Y-85733633D01*
X193416535Y-85771326D01*
X193421000Y-85816661D01*
X193421000Y-86903339D01*
X193416535Y-86948674D01*
X193405101Y-86986367D01*
X193386534Y-87021103D01*
X193361548Y-87051548D01*
X193331103Y-87076534D01*
X193296367Y-87095101D01*
X193258674Y-87106535D01*
X193213339Y-87111000D01*
X192376661Y-87111000D01*
X192331326Y-87106535D01*
X192293633Y-87095101D01*
X192258897Y-87076534D01*
X192228452Y-87051548D01*
X192203466Y-87021103D01*
X192184899Y-86986367D01*
X192173465Y-86948674D01*
X192169000Y-86903339D01*
X192169000Y-85816661D01*
X192173465Y-85771326D01*
X192184899Y-85733633D01*
X192203466Y-85698897D01*
X192228452Y-85668452D01*
X192258897Y-85643466D01*
X192293633Y-85624899D01*
X192331326Y-85613465D01*
X192376661Y-85609000D01*
X193213339Y-85609000D01*
X193258674Y-85613465D01*
X193258674Y-85613465D01*
G37*
G36*
X191208674Y-85613465D02*
G01*
X191246367Y-85624899D01*
X191281103Y-85643466D01*
X191311548Y-85668452D01*
X191336534Y-85698897D01*
X191355101Y-85733633D01*
X191366535Y-85771326D01*
X191371000Y-85816661D01*
X191371000Y-86903339D01*
X191366535Y-86948674D01*
X191355101Y-86986367D01*
X191336534Y-87021103D01*
X191311548Y-87051548D01*
X191281103Y-87076534D01*
X191246367Y-87095101D01*
X191208674Y-87106535D01*
X191163339Y-87111000D01*
X190326661Y-87111000D01*
X190281326Y-87106535D01*
X190243633Y-87095101D01*
X190208897Y-87076534D01*
X190178452Y-87051548D01*
X190153466Y-87021103D01*
X190134899Y-86986367D01*
X190123465Y-86948674D01*
X190119000Y-86903339D01*
X190119000Y-85816661D01*
X190123465Y-85771326D01*
X190134899Y-85733633D01*
X190153466Y-85698897D01*
X190178452Y-85668452D01*
X190208897Y-85643466D01*
X190243633Y-85624899D01*
X190281326Y-85613465D01*
X190326661Y-85609000D01*
X191163339Y-85609000D01*
X191208674Y-85613465D01*
X191208674Y-85613465D01*
G37*
G36*
X207718674Y-85613465D02*
G01*
X207756367Y-85624899D01*
X207791103Y-85643466D01*
X207821548Y-85668452D01*
X207846534Y-85698897D01*
X207865101Y-85733633D01*
X207876535Y-85771326D01*
X207881000Y-85816661D01*
X207881000Y-86903339D01*
X207876535Y-86948674D01*
X207865101Y-86986367D01*
X207846534Y-87021103D01*
X207821548Y-87051548D01*
X207791103Y-87076534D01*
X207756367Y-87095101D01*
X207718674Y-87106535D01*
X207673339Y-87111000D01*
X206836661Y-87111000D01*
X206791326Y-87106535D01*
X206753633Y-87095101D01*
X206718897Y-87076534D01*
X206688452Y-87051548D01*
X206663466Y-87021103D01*
X206644899Y-86986367D01*
X206633465Y-86948674D01*
X206629000Y-86903339D01*
X206629000Y-85816661D01*
X206633465Y-85771326D01*
X206644899Y-85733633D01*
X206663466Y-85698897D01*
X206688452Y-85668452D01*
X206718897Y-85643466D01*
X206753633Y-85624899D01*
X206791326Y-85613465D01*
X206836661Y-85609000D01*
X207673339Y-85609000D01*
X207718674Y-85613465D01*
X207718674Y-85613465D01*
G37*
G36*
X209768674Y-85613465D02*
G01*
X209806367Y-85624899D01*
X209841103Y-85643466D01*
X209871548Y-85668452D01*
X209896534Y-85698897D01*
X209915101Y-85733633D01*
X209926535Y-85771326D01*
X209931000Y-85816661D01*
X209931000Y-86903339D01*
X209926535Y-86948674D01*
X209915101Y-86986367D01*
X209896534Y-87021103D01*
X209871548Y-87051548D01*
X209841103Y-87076534D01*
X209806367Y-87095101D01*
X209768674Y-87106535D01*
X209723339Y-87111000D01*
X208886661Y-87111000D01*
X208841326Y-87106535D01*
X208803633Y-87095101D01*
X208768897Y-87076534D01*
X208738452Y-87051548D01*
X208713466Y-87021103D01*
X208694899Y-86986367D01*
X208683465Y-86948674D01*
X208679000Y-86903339D01*
X208679000Y-85816661D01*
X208683465Y-85771326D01*
X208694899Y-85733633D01*
X208713466Y-85698897D01*
X208738452Y-85668452D01*
X208768897Y-85643466D01*
X208803633Y-85624899D01*
X208841326Y-85613465D01*
X208886661Y-85609000D01*
X209723339Y-85609000D01*
X209768674Y-85613465D01*
X209768674Y-85613465D01*
G37*
G36*
X152431000Y-85756000D02*
G01*
X149829000Y-85756000D01*
X149829000Y-83154000D01*
X152431000Y-83154000D01*
X152431000Y-85756000D01*
X152431000Y-85756000D01*
G37*
G36*
X177813562Y-83478181D02*
G01*
X177848481Y-83488774D01*
X177880663Y-83505976D01*
X177908873Y-83529127D01*
X177932024Y-83557337D01*
X177949226Y-83589519D01*
X177959819Y-83624438D01*
X177964000Y-83666895D01*
X177964000Y-84808105D01*
X177959819Y-84850562D01*
X177949226Y-84885481D01*
X177932024Y-84917663D01*
X177908873Y-84945873D01*
X177880663Y-84969024D01*
X177848481Y-84986226D01*
X177813562Y-84996819D01*
X177771105Y-85001000D01*
X176304895Y-85001000D01*
X176262438Y-84996819D01*
X176227519Y-84986226D01*
X176195337Y-84969024D01*
X176167127Y-84945873D01*
X176143976Y-84917663D01*
X176126774Y-84885481D01*
X176116181Y-84850562D01*
X176112000Y-84808105D01*
X176112000Y-83666895D01*
X176116181Y-83624438D01*
X176126774Y-83589519D01*
X176143976Y-83557337D01*
X176167127Y-83529127D01*
X176195337Y-83505976D01*
X176227519Y-83488774D01*
X176262438Y-83478181D01*
X176304895Y-83474000D01*
X177771105Y-83474000D01*
X177813562Y-83478181D01*
X177813562Y-83478181D01*
G37*
G36*
X180353562Y-83478181D02*
G01*
X180388481Y-83488774D01*
X180420663Y-83505976D01*
X180448873Y-83529127D01*
X180472024Y-83557337D01*
X180489226Y-83589519D01*
X180499819Y-83624438D01*
X180504000Y-83666895D01*
X180504000Y-84808105D01*
X180499819Y-84850562D01*
X180489226Y-84885481D01*
X180472024Y-84917663D01*
X180448873Y-84945873D01*
X180420663Y-84969024D01*
X180388481Y-84986226D01*
X180353562Y-84996819D01*
X180311105Y-85001000D01*
X178844895Y-85001000D01*
X178802438Y-84996819D01*
X178767519Y-84986226D01*
X178735337Y-84969024D01*
X178707127Y-84945873D01*
X178683976Y-84917663D01*
X178666774Y-84885481D01*
X178656181Y-84850562D01*
X178652000Y-84808105D01*
X178652000Y-83666895D01*
X178656181Y-83624438D01*
X178666774Y-83589519D01*
X178683976Y-83557337D01*
X178707127Y-83529127D01*
X178735337Y-83505976D01*
X178767519Y-83488774D01*
X178802438Y-83478181D01*
X178844895Y-83474000D01*
X180311105Y-83474000D01*
X180353562Y-83478181D01*
X180353562Y-83478181D01*
G37*
G36*
X172793674Y-83073465D02*
G01*
X172831367Y-83084899D01*
X172866103Y-83103466D01*
X172896548Y-83128452D01*
X172921534Y-83158897D01*
X172940101Y-83193633D01*
X172951535Y-83231326D01*
X172956000Y-83276661D01*
X172956000Y-84363339D01*
X172951535Y-84408674D01*
X172940101Y-84446367D01*
X172921534Y-84481103D01*
X172896548Y-84511548D01*
X172866103Y-84536534D01*
X172831367Y-84555101D01*
X172793674Y-84566535D01*
X172748339Y-84571000D01*
X171911661Y-84571000D01*
X171866326Y-84566535D01*
X171828633Y-84555101D01*
X171793897Y-84536534D01*
X171763452Y-84511548D01*
X171738466Y-84481103D01*
X171719899Y-84446367D01*
X171708465Y-84408674D01*
X171704000Y-84363339D01*
X171704000Y-83276661D01*
X171708465Y-83231326D01*
X171719899Y-83193633D01*
X171738466Y-83158897D01*
X171763452Y-83128452D01*
X171793897Y-83103466D01*
X171828633Y-83084899D01*
X171866326Y-83073465D01*
X171911661Y-83069000D01*
X172748339Y-83069000D01*
X172793674Y-83073465D01*
X172793674Y-83073465D01*
G37*
G36*
X174843674Y-83073465D02*
G01*
X174881367Y-83084899D01*
X174916103Y-83103466D01*
X174946548Y-83128452D01*
X174971534Y-83158897D01*
X174990101Y-83193633D01*
X175001535Y-83231326D01*
X175006000Y-83276661D01*
X175006000Y-84363339D01*
X175001535Y-84408674D01*
X174990101Y-84446367D01*
X174971534Y-84481103D01*
X174946548Y-84511548D01*
X174916103Y-84536534D01*
X174881367Y-84555101D01*
X174843674Y-84566535D01*
X174798339Y-84571000D01*
X173961661Y-84571000D01*
X173916326Y-84566535D01*
X173878633Y-84555101D01*
X173843897Y-84536534D01*
X173813452Y-84511548D01*
X173788466Y-84481103D01*
X173769899Y-84446367D01*
X173758465Y-84408674D01*
X173754000Y-84363339D01*
X173754000Y-83276661D01*
X173758465Y-83231326D01*
X173769899Y-83193633D01*
X173788466Y-83158897D01*
X173813452Y-83128452D01*
X173843897Y-83103466D01*
X173878633Y-83084899D01*
X173916326Y-83073465D01*
X173961661Y-83069000D01*
X174798339Y-83069000D01*
X174843674Y-83073465D01*
X174843674Y-83073465D01*
G37*
G36*
X185655000Y-83561000D02*
G01*
X183153000Y-83561000D01*
X183153000Y-81959000D01*
X185655000Y-81959000D01*
X185655000Y-83561000D01*
X185655000Y-83561000D01*
G37*
G36*
X161669487Y-80663996D02*
G01*
X161906253Y-80762068D01*
X161906255Y-80762069D01*
X162119339Y-80904447D01*
X162300553Y-81085661D01*
X162433722Y-81284962D01*
X162442932Y-81298747D01*
X162541004Y-81535513D01*
X162591000Y-81786861D01*
X162591000Y-82043139D01*
X162541004Y-82294487D01*
X162454159Y-82504148D01*
X162442931Y-82531255D01*
X162300553Y-82744339D01*
X162119339Y-82925553D01*
X161906255Y-83067931D01*
X161906254Y-83067932D01*
X161906253Y-83067932D01*
X161669487Y-83166004D01*
X161418139Y-83216000D01*
X161161861Y-83216000D01*
X160910513Y-83166004D01*
X160673747Y-83067932D01*
X160673746Y-83067932D01*
X160673745Y-83067931D01*
X160460661Y-82925553D01*
X160279447Y-82744339D01*
X160137069Y-82531255D01*
X160125841Y-82504148D01*
X160038996Y-82294487D01*
X159989000Y-82043139D01*
X159989000Y-81786861D01*
X160038996Y-81535513D01*
X160137068Y-81298747D01*
X160146279Y-81284962D01*
X160279447Y-81085661D01*
X160460661Y-80904447D01*
X160673745Y-80762069D01*
X160673747Y-80762068D01*
X160910513Y-80663996D01*
X161161861Y-80614000D01*
X161418139Y-80614000D01*
X161669487Y-80663996D01*
X161669487Y-80663996D01*
G37*
G36*
X210601000Y-82918500D02*
G01*
X208499000Y-82918500D01*
X208499000Y-80911500D01*
X210601000Y-80911500D01*
X210601000Y-82918500D01*
X210601000Y-82918500D01*
G37*
G36*
X174844148Y-81168454D02*
G01*
X174881728Y-81179854D01*
X174916364Y-81198367D01*
X174946720Y-81223280D01*
X174971633Y-81253636D01*
X174990146Y-81288272D01*
X175001546Y-81325852D01*
X175006000Y-81371075D01*
X175006000Y-82458925D01*
X175001546Y-82504148D01*
X174990146Y-82541728D01*
X174971633Y-82576364D01*
X174946720Y-82606720D01*
X174916364Y-82631633D01*
X174881728Y-82650146D01*
X174844148Y-82661546D01*
X174798925Y-82666000D01*
X173961075Y-82666000D01*
X173915852Y-82661546D01*
X173878272Y-82650146D01*
X173843636Y-82631633D01*
X173813280Y-82606720D01*
X173788367Y-82576364D01*
X173769854Y-82541728D01*
X173758454Y-82504148D01*
X173754000Y-82458925D01*
X173754000Y-81371075D01*
X173758454Y-81325852D01*
X173769854Y-81288272D01*
X173788367Y-81253636D01*
X173813280Y-81223280D01*
X173843636Y-81198367D01*
X173878272Y-81179854D01*
X173915852Y-81168454D01*
X173961075Y-81164000D01*
X174798925Y-81164000D01*
X174844148Y-81168454D01*
X174844148Y-81168454D01*
G37*
G36*
X170398674Y-81168465D02*
G01*
X170436367Y-81179899D01*
X170471103Y-81198466D01*
X170501548Y-81223452D01*
X170526534Y-81253897D01*
X170545101Y-81288633D01*
X170556535Y-81326326D01*
X170561000Y-81371661D01*
X170561000Y-82458339D01*
X170556535Y-82503674D01*
X170545101Y-82541367D01*
X170526534Y-82576103D01*
X170501548Y-82606548D01*
X170471103Y-82631534D01*
X170436367Y-82650101D01*
X170398674Y-82661535D01*
X170353339Y-82666000D01*
X169516661Y-82666000D01*
X169471326Y-82661535D01*
X169433633Y-82650101D01*
X169398897Y-82631534D01*
X169368452Y-82606548D01*
X169343466Y-82576103D01*
X169324899Y-82541367D01*
X169313465Y-82503674D01*
X169309000Y-82458339D01*
X169309000Y-81371661D01*
X169313465Y-81326326D01*
X169324899Y-81288633D01*
X169343466Y-81253897D01*
X169368452Y-81223452D01*
X169398897Y-81198466D01*
X169433633Y-81179899D01*
X169471326Y-81168465D01*
X169516661Y-81164000D01*
X170353339Y-81164000D01*
X170398674Y-81168465D01*
X170398674Y-81168465D01*
G37*
G36*
X168348674Y-81168465D02*
G01*
X168386367Y-81179899D01*
X168421103Y-81198466D01*
X168451548Y-81223452D01*
X168476534Y-81253897D01*
X168495101Y-81288633D01*
X168506535Y-81326326D01*
X168511000Y-81371661D01*
X168511000Y-82458339D01*
X168506535Y-82503674D01*
X168495101Y-82541367D01*
X168476534Y-82576103D01*
X168451548Y-82606548D01*
X168421103Y-82631534D01*
X168386367Y-82650101D01*
X168348674Y-82661535D01*
X168303339Y-82666000D01*
X167466661Y-82666000D01*
X167421326Y-82661535D01*
X167383633Y-82650101D01*
X167348897Y-82631534D01*
X167318452Y-82606548D01*
X167293466Y-82576103D01*
X167274899Y-82541367D01*
X167263465Y-82503674D01*
X167259000Y-82458339D01*
X167259000Y-81371661D01*
X167263465Y-81326326D01*
X167274899Y-81288633D01*
X167293466Y-81253897D01*
X167318452Y-81223452D01*
X167348897Y-81198466D01*
X167383633Y-81179899D01*
X167421326Y-81168465D01*
X167466661Y-81164000D01*
X168303339Y-81164000D01*
X168348674Y-81168465D01*
X168348674Y-81168465D01*
G37*
G36*
X172793674Y-81168465D02*
G01*
X172831367Y-81179899D01*
X172866103Y-81198466D01*
X172896548Y-81223452D01*
X172921534Y-81253897D01*
X172940101Y-81288633D01*
X172951535Y-81326326D01*
X172956000Y-81371661D01*
X172956000Y-82458339D01*
X172951535Y-82503674D01*
X172940101Y-82541367D01*
X172921534Y-82576103D01*
X172896548Y-82606548D01*
X172866103Y-82631534D01*
X172831367Y-82650101D01*
X172793674Y-82661535D01*
X172748339Y-82666000D01*
X171911661Y-82666000D01*
X171866326Y-82661535D01*
X171828633Y-82650101D01*
X171793897Y-82631534D01*
X171763452Y-82606548D01*
X171738466Y-82576103D01*
X171719899Y-82541367D01*
X171708465Y-82503674D01*
X171704000Y-82458339D01*
X171704000Y-81371661D01*
X171708465Y-81326326D01*
X171719899Y-81288633D01*
X171738466Y-81253897D01*
X171763452Y-81223452D01*
X171793897Y-81198466D01*
X171828633Y-81179899D01*
X171866326Y-81168465D01*
X171911661Y-81164000D01*
X172748339Y-81164000D01*
X172793674Y-81168465D01*
X172793674Y-81168465D01*
G37*
G36*
X177118674Y-80413465D02*
G01*
X177156367Y-80424899D01*
X177191103Y-80443466D01*
X177221548Y-80468452D01*
X177246534Y-80498897D01*
X177265101Y-80533633D01*
X177276535Y-80571326D01*
X177281000Y-80616661D01*
X177281000Y-81453339D01*
X177276535Y-81498674D01*
X177265101Y-81536367D01*
X177246534Y-81571103D01*
X177221548Y-81601548D01*
X177191103Y-81626534D01*
X177156367Y-81645101D01*
X177118674Y-81656535D01*
X177073339Y-81661000D01*
X175986661Y-81661000D01*
X175941326Y-81656535D01*
X175903633Y-81645101D01*
X175868897Y-81626534D01*
X175838452Y-81601548D01*
X175813466Y-81571103D01*
X175794899Y-81536367D01*
X175783465Y-81498674D01*
X175779000Y-81453339D01*
X175779000Y-80616661D01*
X175783465Y-80571326D01*
X175794899Y-80533633D01*
X175813466Y-80498897D01*
X175838452Y-80468452D01*
X175868897Y-80443466D01*
X175903633Y-80424899D01*
X175941326Y-80413465D01*
X175986661Y-80409000D01*
X177073339Y-80409000D01*
X177118674Y-80413465D01*
X177118674Y-80413465D01*
G37*
G36*
X193066669Y-77582686D02*
G01*
X193243058Y-77600059D01*
X193582548Y-77703042D01*
X193582550Y-77703043D01*
X193895422Y-77870277D01*
X194169661Y-78095339D01*
X194394723Y-78369578D01*
X194506167Y-78578075D01*
X194561958Y-78682452D01*
X194664941Y-79021942D01*
X194699714Y-79375000D01*
X194664941Y-79728058D01*
X194561958Y-80067548D01*
X194561957Y-80067550D01*
X194394723Y-80380422D01*
X194169661Y-80654661D01*
X193895422Y-80879723D01*
X193582550Y-81046957D01*
X193582548Y-81046958D01*
X193243058Y-81149941D01*
X193066669Y-81167314D01*
X192978476Y-81176000D01*
X192801524Y-81176000D01*
X192713331Y-81167314D01*
X192536942Y-81149941D01*
X192197452Y-81046958D01*
X192197450Y-81046957D01*
X191884578Y-80879723D01*
X191610339Y-80654661D01*
X191385277Y-80380422D01*
X191218043Y-80067550D01*
X191218042Y-80067548D01*
X191115059Y-79728058D01*
X191080286Y-79375000D01*
X191115059Y-79021942D01*
X191218042Y-78682452D01*
X191273833Y-78578075D01*
X191385277Y-78369578D01*
X191610339Y-78095339D01*
X191884578Y-77870277D01*
X192197450Y-77703043D01*
X192197452Y-77703042D01*
X192536942Y-77600059D01*
X192713331Y-77582686D01*
X192801524Y-77574000D01*
X192978476Y-77574000D01*
X193066669Y-77582686D01*
X193066669Y-77582686D01*
G37*
G36*
X209681305Y-78374899D02*
G01*
X209794220Y-78386020D01*
X209983381Y-78443401D01*
X210157712Y-78536583D01*
X210310515Y-78661985D01*
X210435917Y-78814788D01*
X210529099Y-78989119D01*
X210586480Y-79178280D01*
X210605855Y-79375000D01*
X210586480Y-79571720D01*
X210529099Y-79760881D01*
X210435917Y-79935212D01*
X210310515Y-80088015D01*
X210157712Y-80213417D01*
X209983381Y-80306599D01*
X209794220Y-80363980D01*
X209695936Y-80373660D01*
X209646795Y-80378500D01*
X209453205Y-80378500D01*
X209404064Y-80373660D01*
X209305780Y-80363980D01*
X209116619Y-80306599D01*
X208942288Y-80213417D01*
X208789485Y-80088015D01*
X208664083Y-79935212D01*
X208570901Y-79760881D01*
X208513520Y-79571720D01*
X208494145Y-79375000D01*
X208513520Y-79178280D01*
X208570901Y-78989119D01*
X208664083Y-78814788D01*
X208789485Y-78661985D01*
X208942288Y-78536583D01*
X209116619Y-78443401D01*
X209305780Y-78386020D01*
X209418695Y-78374899D01*
X209453205Y-78371500D01*
X209646795Y-78371500D01*
X209681305Y-78374899D01*
X209681305Y-78374899D01*
G37*
G36*
X174411000Y-79941000D02*
G01*
X173289000Y-79941000D01*
X173289000Y-77539000D01*
X174411000Y-77539000D01*
X174411000Y-79941000D01*
X174411000Y-79941000D01*
G37*
G36*
X169611000Y-79941000D02*
G01*
X168489000Y-79941000D01*
X168489000Y-77539000D01*
X169611000Y-77539000D01*
X169611000Y-79941000D01*
X169611000Y-79941000D01*
G37*
G36*
X172415000Y-79790000D02*
G01*
X170485000Y-79790000D01*
X170485000Y-77690000D01*
X172415000Y-77690000D01*
X172415000Y-79790000D01*
X172415000Y-79790000D01*
G37*
G36*
X179721000Y-79621000D02*
G01*
X178419000Y-79621000D01*
X178419000Y-78619000D01*
X179721000Y-78619000D01*
X179721000Y-79621000D01*
X179721000Y-79621000D01*
G37*
G36*
X177118674Y-78363465D02*
G01*
X177156367Y-78374899D01*
X177191103Y-78393466D01*
X177221548Y-78418452D01*
X177246534Y-78448897D01*
X177265101Y-78483633D01*
X177276535Y-78521326D01*
X177281000Y-78566661D01*
X177281000Y-79403339D01*
X177276535Y-79448674D01*
X177265101Y-79486367D01*
X177246534Y-79521103D01*
X177221548Y-79551548D01*
X177191103Y-79576534D01*
X177156367Y-79595101D01*
X177118674Y-79606535D01*
X177073339Y-79611000D01*
X175986661Y-79611000D01*
X175941326Y-79606535D01*
X175903633Y-79595101D01*
X175868897Y-79576534D01*
X175838452Y-79551548D01*
X175813466Y-79521103D01*
X175794899Y-79486367D01*
X175783465Y-79448674D01*
X175779000Y-79403339D01*
X175779000Y-78566661D01*
X175783465Y-78521326D01*
X175794899Y-78483633D01*
X175813466Y-78448897D01*
X175838452Y-78418452D01*
X175868897Y-78393466D01*
X175903633Y-78374899D01*
X175941326Y-78363465D01*
X175986661Y-78359000D01*
X177073339Y-78359000D01*
X177118674Y-78363465D01*
X177118674Y-78363465D01*
G37*
G36*
X166958674Y-77873465D02*
G01*
X166996367Y-77884899D01*
X167031103Y-77903466D01*
X167061548Y-77928452D01*
X167086534Y-77958897D01*
X167105101Y-77993633D01*
X167116535Y-78031326D01*
X167121000Y-78076661D01*
X167121000Y-78913339D01*
X167116535Y-78958674D01*
X167105101Y-78996367D01*
X167086534Y-79031103D01*
X167061548Y-79061548D01*
X167031103Y-79086534D01*
X166996367Y-79105101D01*
X166958674Y-79116535D01*
X166913339Y-79121000D01*
X165826661Y-79121000D01*
X165781326Y-79116535D01*
X165743633Y-79105101D01*
X165708897Y-79086534D01*
X165678452Y-79061548D01*
X165653466Y-79031103D01*
X165634899Y-78996367D01*
X165623465Y-78958674D01*
X165619000Y-78913339D01*
X165619000Y-78076661D01*
X165623465Y-78031326D01*
X165634899Y-77993633D01*
X165653466Y-77958897D01*
X165678452Y-77928452D01*
X165708897Y-77903466D01*
X165743633Y-77884899D01*
X165781326Y-77873465D01*
X165826661Y-77869000D01*
X166913339Y-77869000D01*
X166958674Y-77873465D01*
X166958674Y-77873465D01*
G37*
G36*
X185655000Y-78061000D02*
G01*
X183153000Y-78061000D01*
X183153000Y-76459000D01*
X185655000Y-76459000D01*
X185655000Y-78061000D01*
X185655000Y-78061000D01*
G37*
G36*
X209657303Y-75832535D02*
G01*
X209794220Y-75846020D01*
X209983381Y-75903401D01*
X209983383Y-75903402D01*
X209989776Y-75906819D01*
X210157712Y-75996583D01*
X210310515Y-76121985D01*
X210435917Y-76274788D01*
X210529099Y-76449119D01*
X210586480Y-76638280D01*
X210605855Y-76835000D01*
X210586480Y-77031720D01*
X210529099Y-77220881D01*
X210435917Y-77395212D01*
X210310515Y-77548015D01*
X210157712Y-77673417D01*
X209983381Y-77766599D01*
X209794220Y-77823980D01*
X209695936Y-77833660D01*
X209646795Y-77838500D01*
X209453205Y-77838500D01*
X209404064Y-77833660D01*
X209305780Y-77823980D01*
X209116619Y-77766599D01*
X208942288Y-77673417D01*
X208789485Y-77548015D01*
X208664083Y-77395212D01*
X208570901Y-77220881D01*
X208513520Y-77031720D01*
X208494145Y-76835000D01*
X208513520Y-76638280D01*
X208570901Y-76449119D01*
X208664083Y-76274788D01*
X208789485Y-76121985D01*
X208942288Y-75996583D01*
X209110224Y-75906819D01*
X209116617Y-75903402D01*
X209116619Y-75903401D01*
X209305780Y-75846020D01*
X209442697Y-75832535D01*
X209453205Y-75831500D01*
X209646795Y-75831500D01*
X209657303Y-75832535D01*
X209657303Y-75832535D01*
G37*
G36*
X166958674Y-75823465D02*
G01*
X166996367Y-75834899D01*
X167031103Y-75853466D01*
X167061548Y-75878452D01*
X167086534Y-75908897D01*
X167105101Y-75943633D01*
X167116535Y-75981326D01*
X167121000Y-76026661D01*
X167121000Y-76863339D01*
X167116535Y-76908674D01*
X167105101Y-76946367D01*
X167086534Y-76981103D01*
X167061548Y-77011548D01*
X167031103Y-77036534D01*
X166996367Y-77055101D01*
X166958674Y-77066535D01*
X166913339Y-77071000D01*
X165826661Y-77071000D01*
X165781326Y-77066535D01*
X165743633Y-77055101D01*
X165708897Y-77036534D01*
X165678452Y-77011548D01*
X165653466Y-76981103D01*
X165634899Y-76946367D01*
X165623465Y-76908674D01*
X165619000Y-76863339D01*
X165619000Y-76026661D01*
X165623465Y-75981326D01*
X165634899Y-75943633D01*
X165653466Y-75908897D01*
X165678452Y-75878452D01*
X165708897Y-75853466D01*
X165743633Y-75834899D01*
X165781326Y-75823465D01*
X165826661Y-75819000D01*
X166913339Y-75819000D01*
X166958674Y-75823465D01*
X166958674Y-75823465D01*
G37*
G36*
X179721000Y-76321000D02*
G01*
X178419000Y-76321000D01*
X178419000Y-75319000D01*
X179721000Y-75319000D01*
X179721000Y-76321000D01*
X179721000Y-76321000D01*
G37*
G36*
X162515562Y-74388181D02*
G01*
X162550481Y-74398774D01*
X162582663Y-74415976D01*
X162610873Y-74439127D01*
X162634024Y-74467337D01*
X162651226Y-74499519D01*
X162661819Y-74534438D01*
X162666000Y-74576895D01*
X162666000Y-75718105D01*
X162661819Y-75760562D01*
X162651226Y-75795481D01*
X162634024Y-75827663D01*
X162610873Y-75855873D01*
X162582663Y-75879024D01*
X162550481Y-75896226D01*
X162515562Y-75906819D01*
X162473105Y-75911000D01*
X160106895Y-75911000D01*
X160064438Y-75906819D01*
X160029519Y-75896226D01*
X159997337Y-75879024D01*
X159969127Y-75855873D01*
X159945976Y-75827663D01*
X159928774Y-75795481D01*
X159918181Y-75760562D01*
X159914000Y-75718105D01*
X159914000Y-74576895D01*
X159918181Y-74534438D01*
X159928774Y-74499519D01*
X159945976Y-74467337D01*
X159969127Y-74439127D01*
X159997337Y-74415976D01*
X160029519Y-74398774D01*
X160064438Y-74388181D01*
X160106895Y-74384000D01*
X162473105Y-74384000D01*
X162515562Y-74388181D01*
X162515562Y-74388181D01*
G37*
G36*
X151285785Y-72298049D02*
G01*
X151584230Y-72357413D01*
X151912002Y-72493181D01*
X152206989Y-72690285D01*
X152457855Y-72941151D01*
X152654959Y-73236138D01*
X152790727Y-73563910D01*
X152859940Y-73911871D01*
X152859940Y-74266649D01*
X152790727Y-74614610D01*
X152654959Y-74942382D01*
X152457855Y-75237369D01*
X152206989Y-75488235D01*
X151912002Y-75685339D01*
X151584230Y-75821107D01*
X151295934Y-75878452D01*
X151236270Y-75890320D01*
X150881490Y-75890320D01*
X150821826Y-75878452D01*
X150533530Y-75821107D01*
X150205758Y-75685339D01*
X149910771Y-75488235D01*
X149659905Y-75237369D01*
X149462801Y-74942382D01*
X149327033Y-74614610D01*
X149257820Y-74266649D01*
X149257820Y-73911871D01*
X149327033Y-73563910D01*
X149462801Y-73236138D01*
X149659905Y-72941151D01*
X149910771Y-72690285D01*
X150205758Y-72493181D01*
X150533530Y-72357413D01*
X150831975Y-72298049D01*
X150881490Y-72288200D01*
X151236270Y-72288200D01*
X151285785Y-72298049D01*
X151285785Y-72298049D01*
G37*
G36*
X221285645Y-72298049D02*
G01*
X221584090Y-72357413D01*
X221911862Y-72493181D01*
X222206849Y-72690285D01*
X222457715Y-72941151D01*
X222654819Y-73236138D01*
X222790587Y-73563910D01*
X222859800Y-73911871D01*
X222859800Y-74266649D01*
X222790587Y-74614610D01*
X222654819Y-74942382D01*
X222457715Y-75237369D01*
X222206849Y-75488235D01*
X221911862Y-75685339D01*
X221584090Y-75821107D01*
X221295794Y-75878452D01*
X221236130Y-75890320D01*
X220881350Y-75890320D01*
X220821686Y-75878452D01*
X220533390Y-75821107D01*
X220205618Y-75685339D01*
X219910631Y-75488235D01*
X219659765Y-75237369D01*
X219462661Y-74942382D01*
X219326893Y-74614610D01*
X219257680Y-74266649D01*
X219257680Y-73911871D01*
X219326893Y-73563910D01*
X219462661Y-73236138D01*
X219659765Y-72941151D01*
X219910631Y-72690285D01*
X220205618Y-72493181D01*
X220533390Y-72357413D01*
X220831835Y-72298049D01*
X220881350Y-72288200D01*
X221236130Y-72288200D01*
X221285645Y-72298049D01*
X221285645Y-72298049D01*
G37*
G36*
X176748674Y-74183465D02*
G01*
X176786367Y-74194899D01*
X176821103Y-74213466D01*
X176851548Y-74238452D01*
X176876534Y-74268897D01*
X176895101Y-74303633D01*
X176906535Y-74341326D01*
X176911000Y-74386661D01*
X176911000Y-75473339D01*
X176906535Y-75518674D01*
X176895101Y-75556367D01*
X176876534Y-75591103D01*
X176851548Y-75621548D01*
X176821103Y-75646534D01*
X176786367Y-75665101D01*
X176748674Y-75676535D01*
X176703339Y-75681000D01*
X175866661Y-75681000D01*
X175821326Y-75676535D01*
X175783633Y-75665101D01*
X175748897Y-75646534D01*
X175718452Y-75621548D01*
X175693466Y-75591103D01*
X175674899Y-75556367D01*
X175663465Y-75518674D01*
X175659000Y-75473339D01*
X175659000Y-74386661D01*
X175663465Y-74341326D01*
X175674899Y-74303633D01*
X175693466Y-74268897D01*
X175718452Y-74238452D01*
X175748897Y-74213466D01*
X175783633Y-74194899D01*
X175821326Y-74183465D01*
X175866661Y-74179000D01*
X176703339Y-74179000D01*
X176748674Y-74183465D01*
X176748674Y-74183465D01*
G37*
G36*
X174698674Y-74183465D02*
G01*
X174736367Y-74194899D01*
X174771103Y-74213466D01*
X174801548Y-74238452D01*
X174826534Y-74268897D01*
X174845101Y-74303633D01*
X174856535Y-74341326D01*
X174861000Y-74386661D01*
X174861000Y-75473339D01*
X174856535Y-75518674D01*
X174845101Y-75556367D01*
X174826534Y-75591103D01*
X174801548Y-75621548D01*
X174771103Y-75646534D01*
X174736367Y-75665101D01*
X174698674Y-75676535D01*
X174653339Y-75681000D01*
X173816661Y-75681000D01*
X173771326Y-75676535D01*
X173733633Y-75665101D01*
X173698897Y-75646534D01*
X173668452Y-75621548D01*
X173643466Y-75591103D01*
X173624899Y-75556367D01*
X173613465Y-75518674D01*
X173609000Y-75473339D01*
X173609000Y-74386661D01*
X173613465Y-74341326D01*
X173624899Y-74303633D01*
X173643466Y-74268897D01*
X173668452Y-74238452D01*
X173698897Y-74213466D01*
X173733633Y-74194899D01*
X173771326Y-74183465D01*
X173816661Y-74179000D01*
X174653339Y-74179000D01*
X174698674Y-74183465D01*
X174698674Y-74183465D01*
G37*
G36*
X162516187Y-71413166D02*
G01*
X162550965Y-71423716D01*
X162583010Y-71440845D01*
X162611102Y-71463898D01*
X162634155Y-71491990D01*
X162651284Y-71524035D01*
X162661834Y-71558813D01*
X162666000Y-71601114D01*
X162666000Y-72743886D01*
X162661834Y-72786187D01*
X162651284Y-72820965D01*
X162634155Y-72853010D01*
X162611102Y-72881102D01*
X162583010Y-72904155D01*
X162550965Y-72921284D01*
X162516187Y-72931834D01*
X162473886Y-72936000D01*
X160106114Y-72936000D01*
X160063813Y-72931834D01*
X160029035Y-72921284D01*
X159996990Y-72904155D01*
X159968898Y-72881102D01*
X159945845Y-72853010D01*
X159928716Y-72820965D01*
X159918166Y-72786187D01*
X159914000Y-72743886D01*
X159914000Y-71601114D01*
X159918166Y-71558813D01*
X159928716Y-71524035D01*
X159945845Y-71491990D01*
X159968898Y-71463898D01*
X159996990Y-71440845D01*
X160029035Y-71423716D01*
X160063813Y-71413166D01*
X160106114Y-71409000D01*
X162473886Y-71409000D01*
X162516187Y-71413166D01*
X162516187Y-71413166D01*
G37*
M02*
