G04 #@! TF.GenerationSoftware,KiCad,Pcbnew,(5.1.0)-1*
G04 #@! TF.CreationDate,2019-04-08T23:38:12+02:00*
G04 #@! TF.ProjectId,WiFiLEDController_FET,57694669-4c45-4444-936f-6e74726f6c6c,rev?*
G04 #@! TF.SameCoordinates,Original*
G04 #@! TF.FileFunction,Copper,L2,Bot*
G04 #@! TF.FilePolarity,Positive*
%FSLAX46Y46*%
G04 Gerber Fmt 4.6, Leading zero omitted, Abs format (unit mm)*
G04 Created by KiCad (PCBNEW (5.1.0)-1) date 2019-04-08 23:38:12*
%MOMM*%
%LPD*%
G04 APERTURE LIST*
%ADD10R,2.000000X1.905000*%
%ADD11O,2.000000X1.905000*%
%ADD12O,1.700000X1.700000*%
%ADD13R,1.700000X1.700000*%
%ADD14C,0.600000*%
%ADD15R,1.730000X1.900000*%
%ADD16R,2.500000X2.500000*%
%ADD17C,2.500000*%
%ADD18C,0.800000*%
%ADD19C,2.500000*%
%ADD20C,5.000000*%
%ADD21C,0.250000*%
%ADD22C,2.000000*%
%ADD23C,0.500000*%
%ADD24C,0.254000*%
G04 APERTURE END LIST*
D10*
X209550000Y-95885000D03*
D11*
X209550000Y-93345000D03*
X209550000Y-90805000D03*
D12*
X215900000Y-90805000D03*
X215900000Y-93345000D03*
X215900000Y-95885000D03*
D13*
X215900000Y-98425000D03*
D14*
X171958000Y-78232000D03*
X171958000Y-79248000D03*
X170942000Y-78232000D03*
X170942000Y-79248000D03*
X171450000Y-78740000D03*
D15*
X171450000Y-78740000D03*
D16*
X151130000Y-84455000D03*
D17*
X151130000Y-89455000D03*
D13*
X150495000Y-108585000D03*
D12*
X150495000Y-106045000D03*
X150495000Y-103505000D03*
D10*
X209550000Y-109855000D03*
D11*
X209550000Y-107315000D03*
X209550000Y-104775000D03*
X209550000Y-76835000D03*
X209550000Y-79375000D03*
D10*
X209550000Y-81915000D03*
D17*
X161290000Y-81915000D03*
X161290000Y-92075000D03*
D18*
X173355000Y-98425000D03*
X188595000Y-95250000D03*
X182880000Y-100965000D03*
X179705000Y-97790000D03*
X160655000Y-110490000D03*
X171450000Y-74295000D03*
X186055000Y-80010000D03*
X163830000Y-72390000D03*
X158750000Y-72390000D03*
X177165000Y-90170000D03*
X179705000Y-90170000D03*
X168275000Y-95885000D03*
X179705000Y-106045000D03*
X163830000Y-78740000D03*
X188595000Y-75565000D03*
X188595000Y-104140000D03*
X205105000Y-90805000D03*
X205105000Y-92075000D03*
X205105000Y-93345000D03*
X205105000Y-94615000D03*
X205105000Y-95885000D03*
X205105000Y-104775000D03*
X205105000Y-106045000D03*
X205105000Y-107315000D03*
X205105000Y-108585000D03*
X205105000Y-109855000D03*
X198120000Y-104775000D03*
X198120000Y-106045000D03*
X198120000Y-107315000D03*
X198120000Y-108585000D03*
X198120000Y-109855000D03*
X198120000Y-76835000D03*
X198120000Y-78105000D03*
X198120000Y-79375000D03*
X198120000Y-80645000D03*
X198120000Y-81915000D03*
X205105000Y-81915000D03*
X205105000Y-80645000D03*
X205105000Y-79375000D03*
X205105000Y-78105000D03*
X205105000Y-76835000D03*
X153670000Y-110490000D03*
X175895000Y-111760000D03*
X173355000Y-111760000D03*
X154305000Y-85725000D03*
X154305000Y-84455000D03*
X154305000Y-83185000D03*
X188595000Y-81915000D03*
X182245000Y-80010000D03*
X184150000Y-80010000D03*
X179705000Y-81280000D03*
X153670000Y-99695000D03*
X163830000Y-70485000D03*
X168910000Y-70485000D03*
X173990000Y-70485000D03*
X179070000Y-70485000D03*
X184150000Y-70485000D03*
X189230000Y-70485000D03*
X194310000Y-70485000D03*
X199390000Y-70485000D03*
X204470000Y-70485000D03*
X209550000Y-70485000D03*
X214630000Y-70485000D03*
X219710000Y-70485000D03*
X224790000Y-70485000D03*
X158750000Y-70485000D03*
X153670000Y-70485000D03*
X148590000Y-70485000D03*
X204470000Y-117475000D03*
X209550000Y-117475000D03*
X214630000Y-117475000D03*
X219710000Y-117475000D03*
X224790000Y-117475000D03*
X148590000Y-117475000D03*
X153670000Y-117475000D03*
X214630000Y-111125000D03*
X212090000Y-102870000D03*
X218440000Y-86360000D03*
X218440000Y-90805000D03*
X175895000Y-106045000D03*
X175895000Y-107950000D03*
X179705000Y-107950000D03*
X188522885Y-92782115D03*
X188595000Y-111760000D03*
X196850000Y-92075000D03*
X196850000Y-90805000D03*
X196850000Y-93345000D03*
X196850000Y-94615000D03*
X196850000Y-95885000D03*
X224790000Y-75565000D03*
X224790000Y-80645000D03*
X224790000Y-85725000D03*
X224790000Y-90805000D03*
X224790000Y-95885000D03*
X224790000Y-100965000D03*
X224790000Y-106045000D03*
X224790000Y-111125000D03*
X154305000Y-79375000D03*
X156210000Y-79375000D03*
X156210000Y-77470000D03*
X161290000Y-70485000D03*
X178435000Y-90170000D03*
X167005000Y-90170000D03*
X167005000Y-91440000D03*
X167005000Y-92710000D03*
X160655000Y-99695000D03*
X147955000Y-85725000D03*
X147955000Y-84455000D03*
X147955000Y-83185000D03*
X194310000Y-111760000D03*
X212090000Y-101600000D03*
X213360000Y-101600000D03*
X213360000Y-102870000D03*
X214786541Y-88489459D03*
X213995000Y-86995000D03*
X213995000Y-85217000D03*
X215421541Y-89124459D03*
X214151540Y-87854460D03*
X213995000Y-86106000D03*
X173355000Y-107950000D03*
X155575000Y-99695000D03*
X173355000Y-106045000D03*
X153034998Y-97155000D03*
X190500000Y-95885000D03*
X190500000Y-104140000D03*
X178435000Y-94615014D03*
X164592000Y-94614996D03*
X173990000Y-99695000D03*
X187960000Y-97790000D03*
X201295000Y-104775000D03*
X201295000Y-100329986D03*
D19*
X215900000Y-89602919D02*
X214152499Y-87855418D01*
X215900000Y-90805000D02*
X215900000Y-89602919D01*
D20*
X162560000Y-83185000D02*
X161290000Y-81915000D01*
X174625000Y-83185000D02*
X162560000Y-83185000D01*
X214152499Y-86202501D02*
X177642501Y-86202501D01*
X177642501Y-86202501D02*
X174625000Y-83185000D01*
D21*
X155974999Y-100094999D02*
X155575000Y-99695000D01*
X173355000Y-107950000D02*
X163830000Y-107950000D01*
X163830000Y-107950000D02*
X155974999Y-100094999D01*
X154940000Y-97155000D02*
X153034998Y-97155000D01*
X173355000Y-106045000D02*
X163830000Y-106045000D01*
X163830000Y-106045000D02*
X154940000Y-97155000D01*
D20*
X153750000Y-92075000D02*
X151130000Y-89455000D01*
X161290000Y-92075000D02*
X153750000Y-92075000D01*
D22*
X213995000Y-95885000D02*
X215900000Y-95885000D01*
X209550000Y-93345000D02*
X211455000Y-93345000D01*
X211455000Y-93345000D02*
X213995000Y-95885000D01*
X216535000Y-79375000D02*
X209550000Y-79375000D01*
X220980000Y-83820000D02*
X216535000Y-79375000D01*
X220980000Y-91440000D02*
X220980000Y-83820000D01*
X215900000Y-93345000D02*
X219075000Y-93345000D01*
X219075000Y-93345000D02*
X220980000Y-91440000D01*
X215900000Y-101275000D02*
X215900000Y-98425000D01*
X215900000Y-103965000D02*
X215900000Y-101275000D01*
X212550000Y-107315000D02*
X215900000Y-103965000D01*
X209550000Y-107315000D02*
X212550000Y-107315000D01*
D21*
X190500000Y-96450685D02*
X190500000Y-104140000D01*
X190500000Y-95885000D02*
X190500000Y-96450685D01*
X164592018Y-94615014D02*
X164592000Y-94614996D01*
X178435000Y-94615014D02*
X164592018Y-94615014D01*
D23*
X182880000Y-97790000D02*
X187960000Y-97790000D01*
X173990000Y-99695000D02*
X180975000Y-99695000D01*
X180975000Y-99695000D02*
X182880000Y-97790000D01*
X201295000Y-104775000D02*
X201295000Y-100329986D01*
D24*
G36*
X225488501Y-118516400D02*
G01*
X201041000Y-118516400D01*
X201041000Y-113879289D01*
X218927680Y-113879289D01*
X218927680Y-114299071D01*
X219009576Y-114710787D01*
X219170219Y-115098615D01*
X219403438Y-115447651D01*
X219700269Y-115744482D01*
X220049305Y-115977701D01*
X220437133Y-116138344D01*
X220848849Y-116220240D01*
X221268631Y-116220240D01*
X221680347Y-116138344D01*
X222068175Y-115977701D01*
X222417211Y-115744482D01*
X222714042Y-115447651D01*
X222947261Y-115098615D01*
X223107904Y-114710787D01*
X223189800Y-114299071D01*
X223189800Y-113879289D01*
X223107904Y-113467573D01*
X222947261Y-113079745D01*
X222714042Y-112730709D01*
X222417211Y-112433878D01*
X222068175Y-112200659D01*
X221680347Y-112040016D01*
X221268631Y-111958120D01*
X220848849Y-111958120D01*
X220437133Y-112040016D01*
X220049305Y-112200659D01*
X219700269Y-112433878D01*
X219403438Y-112730709D01*
X219170219Y-113079745D01*
X219009576Y-113467573D01*
X218927680Y-113879289D01*
X201041000Y-113879289D01*
X201041000Y-113284000D01*
X201038560Y-113259224D01*
X201031333Y-113235399D01*
X201019597Y-113213443D01*
X201003803Y-113194197D01*
X200984557Y-113178403D01*
X200962601Y-113166667D01*
X200938776Y-113159440D01*
X200914000Y-113157000D01*
X154686000Y-113157000D01*
X154661224Y-113159440D01*
X154637399Y-113166667D01*
X154615443Y-113178403D01*
X154596197Y-113194197D01*
X154580403Y-113213443D01*
X154568667Y-113235399D01*
X154561440Y-113259224D01*
X154559000Y-113284000D01*
X154559000Y-118516400D01*
X146631660Y-118516400D01*
X146631660Y-113879289D01*
X148927820Y-113879289D01*
X148927820Y-114299071D01*
X149009716Y-114710787D01*
X149170359Y-115098615D01*
X149403578Y-115447651D01*
X149700409Y-115744482D01*
X150049445Y-115977701D01*
X150437273Y-116138344D01*
X150848989Y-116220240D01*
X151268771Y-116220240D01*
X151680487Y-116138344D01*
X152068315Y-115977701D01*
X152417351Y-115744482D01*
X152714182Y-115447651D01*
X152947401Y-115098615D01*
X153108044Y-114710787D01*
X153189940Y-114299071D01*
X153189940Y-113879289D01*
X153108044Y-113467573D01*
X152947401Y-113079745D01*
X152714182Y-112730709D01*
X152417351Y-112433878D01*
X152068315Y-112200659D01*
X151680487Y-112040016D01*
X151268771Y-111958120D01*
X150848989Y-111958120D01*
X150437273Y-112040016D01*
X150049445Y-112200659D01*
X149700409Y-112433878D01*
X149403578Y-112730709D01*
X149170359Y-113079745D01*
X149009716Y-113467573D01*
X148927820Y-113879289D01*
X146631660Y-113879289D01*
X146631660Y-107735000D01*
X149262157Y-107735000D01*
X149262157Y-109435000D01*
X149269513Y-109509689D01*
X149291299Y-109581508D01*
X149326678Y-109647696D01*
X149374289Y-109705711D01*
X149432304Y-109753322D01*
X149498492Y-109788701D01*
X149570311Y-109810487D01*
X149645000Y-109817843D01*
X151345000Y-109817843D01*
X151419689Y-109810487D01*
X151491508Y-109788701D01*
X151557696Y-109753322D01*
X151615711Y-109705711D01*
X151663322Y-109647696D01*
X151698701Y-109581508D01*
X151720487Y-109509689D01*
X151727843Y-109435000D01*
X151727843Y-107735000D01*
X151720487Y-107660311D01*
X151698701Y-107588492D01*
X151663322Y-107522304D01*
X151615711Y-107464289D01*
X151557696Y-107416678D01*
X151491508Y-107381299D01*
X151419689Y-107359513D01*
X151345000Y-107352157D01*
X149645000Y-107352157D01*
X149570311Y-107359513D01*
X149498492Y-107381299D01*
X149432304Y-107416678D01*
X149374289Y-107464289D01*
X149326678Y-107522304D01*
X149291299Y-107588492D01*
X149269513Y-107660311D01*
X149262157Y-107735000D01*
X146631660Y-107735000D01*
X146631660Y-103505000D01*
X149258044Y-103505000D01*
X149281812Y-103746318D01*
X149352202Y-103978363D01*
X149466509Y-104192216D01*
X149620340Y-104379660D01*
X149807784Y-104533491D01*
X150021637Y-104647798D01*
X150253682Y-104718188D01*
X150434528Y-104736000D01*
X150555472Y-104736000D01*
X150736318Y-104718188D01*
X150968363Y-104647798D01*
X151182216Y-104533491D01*
X151369660Y-104379660D01*
X151523491Y-104192216D01*
X151637798Y-103978363D01*
X151708188Y-103746318D01*
X151731956Y-103505000D01*
X151708188Y-103263682D01*
X151637798Y-103031637D01*
X151523491Y-102817784D01*
X151369660Y-102630340D01*
X151182216Y-102476509D01*
X150968363Y-102362202D01*
X150736318Y-102291812D01*
X150555472Y-102274000D01*
X150434528Y-102274000D01*
X150253682Y-102291812D01*
X150021637Y-102362202D01*
X149807784Y-102476509D01*
X149620340Y-102630340D01*
X149466509Y-102817784D01*
X149352202Y-103031637D01*
X149281812Y-103263682D01*
X149258044Y-103505000D01*
X146631660Y-103505000D01*
X146631660Y-99618078D01*
X154794000Y-99618078D01*
X154794000Y-99771922D01*
X154824013Y-99922809D01*
X154882887Y-100064942D01*
X154968358Y-100192859D01*
X155077141Y-100301642D01*
X155205058Y-100387113D01*
X155347191Y-100445987D01*
X155498078Y-100476000D01*
X155640409Y-100476000D01*
X163454628Y-108290220D01*
X163470473Y-108309527D01*
X163547521Y-108372759D01*
X163635425Y-108419745D01*
X163730807Y-108448678D01*
X163805146Y-108456000D01*
X163805154Y-108456000D01*
X163830000Y-108458447D01*
X163854846Y-108456000D01*
X172756499Y-108456000D01*
X172857141Y-108556642D01*
X172985058Y-108642113D01*
X173127191Y-108700987D01*
X173278078Y-108731000D01*
X173431922Y-108731000D01*
X173582809Y-108700987D01*
X173724942Y-108642113D01*
X173852859Y-108556642D01*
X173961642Y-108447859D01*
X174047113Y-108319942D01*
X174105987Y-108177809D01*
X174136000Y-108026922D01*
X174136000Y-107873078D01*
X174105987Y-107722191D01*
X174047113Y-107580058D01*
X173961642Y-107452141D01*
X173852859Y-107343358D01*
X173810419Y-107315000D01*
X190748690Y-107315000D01*
X190789835Y-107732749D01*
X190911688Y-108134444D01*
X191109566Y-108504648D01*
X191375865Y-108829135D01*
X191700352Y-109095434D01*
X192070556Y-109293312D01*
X192472251Y-109415165D01*
X192785322Y-109446000D01*
X192994678Y-109446000D01*
X193307749Y-109415165D01*
X193709444Y-109293312D01*
X194079648Y-109095434D01*
X194404135Y-108829135D01*
X194670434Y-108504648D01*
X194868312Y-108134444D01*
X194990165Y-107732749D01*
X195031310Y-107315000D01*
X194990165Y-106897251D01*
X194868312Y-106495556D01*
X194670434Y-106125352D01*
X194404135Y-105800865D01*
X194079648Y-105534566D01*
X193709444Y-105336688D01*
X193307749Y-105214835D01*
X192994678Y-105184000D01*
X192785322Y-105184000D01*
X192472251Y-105214835D01*
X192070556Y-105336688D01*
X191700352Y-105534566D01*
X191375865Y-105800865D01*
X191109566Y-106125352D01*
X190911688Y-106495556D01*
X190789835Y-106897251D01*
X190748690Y-107315000D01*
X173810419Y-107315000D01*
X173724942Y-107257887D01*
X173582809Y-107199013D01*
X173431922Y-107169000D01*
X173278078Y-107169000D01*
X173127191Y-107199013D01*
X172985058Y-107257887D01*
X172857141Y-107343358D01*
X172756499Y-107444000D01*
X164039592Y-107444000D01*
X156356000Y-99760409D01*
X156356000Y-99618078D01*
X156325987Y-99467191D01*
X156267113Y-99325058D01*
X156181642Y-99197141D01*
X156072859Y-99088358D01*
X155944942Y-99002887D01*
X155802809Y-98944013D01*
X155651922Y-98914000D01*
X155498078Y-98914000D01*
X155347191Y-98944013D01*
X155205058Y-99002887D01*
X155077141Y-99088358D01*
X154968358Y-99197141D01*
X154882887Y-99325058D01*
X154824013Y-99467191D01*
X154794000Y-99618078D01*
X146631660Y-99618078D01*
X146631660Y-97078078D01*
X152253998Y-97078078D01*
X152253998Y-97231922D01*
X152284011Y-97382809D01*
X152342885Y-97524942D01*
X152428356Y-97652859D01*
X152537139Y-97761642D01*
X152665056Y-97847113D01*
X152807189Y-97905987D01*
X152958076Y-97936000D01*
X153111920Y-97936000D01*
X153262807Y-97905987D01*
X153404940Y-97847113D01*
X153532857Y-97761642D01*
X153633499Y-97661000D01*
X154730409Y-97661000D01*
X163454628Y-106385220D01*
X163470473Y-106404527D01*
X163547521Y-106467759D01*
X163635425Y-106514745D01*
X163730807Y-106543678D01*
X163830000Y-106553448D01*
X163854854Y-106551000D01*
X172756499Y-106551000D01*
X172857141Y-106651642D01*
X172985058Y-106737113D01*
X173127191Y-106795987D01*
X173278078Y-106826000D01*
X173431922Y-106826000D01*
X173582809Y-106795987D01*
X173724942Y-106737113D01*
X173852859Y-106651642D01*
X173961642Y-106542859D01*
X174047113Y-106414942D01*
X174105987Y-106272809D01*
X174136000Y-106121922D01*
X174136000Y-105968078D01*
X174105987Y-105817191D01*
X174047113Y-105675058D01*
X173961642Y-105547141D01*
X173852859Y-105438358D01*
X173724942Y-105352887D01*
X173582809Y-105294013D01*
X173431922Y-105264000D01*
X173278078Y-105264000D01*
X173127191Y-105294013D01*
X172985058Y-105352887D01*
X172857141Y-105438358D01*
X172756499Y-105539000D01*
X164039592Y-105539000D01*
X158118670Y-99618078D01*
X173209000Y-99618078D01*
X173209000Y-99771922D01*
X173239013Y-99922809D01*
X173297887Y-100064942D01*
X173383358Y-100192859D01*
X173492141Y-100301642D01*
X173620058Y-100387113D01*
X173762191Y-100445987D01*
X173913078Y-100476000D01*
X174066922Y-100476000D01*
X174217809Y-100445987D01*
X174359942Y-100387113D01*
X174451405Y-100326000D01*
X180944010Y-100326000D01*
X180975000Y-100329052D01*
X181005990Y-100326000D01*
X181005998Y-100326000D01*
X181098698Y-100316870D01*
X181217642Y-100280789D01*
X181327261Y-100222196D01*
X181423343Y-100143343D01*
X181443105Y-100119263D01*
X183141369Y-98421000D01*
X187498595Y-98421000D01*
X187590058Y-98482113D01*
X187732191Y-98540987D01*
X187883078Y-98571000D01*
X188036922Y-98571000D01*
X188187809Y-98540987D01*
X188329942Y-98482113D01*
X188457859Y-98396642D01*
X188566642Y-98287859D01*
X188652113Y-98159942D01*
X188710987Y-98017809D01*
X188741000Y-97866922D01*
X188741000Y-97713078D01*
X188710987Y-97562191D01*
X188652113Y-97420058D01*
X188566642Y-97292141D01*
X188457859Y-97183358D01*
X188329942Y-97097887D01*
X188187809Y-97039013D01*
X188036922Y-97009000D01*
X187883078Y-97009000D01*
X187732191Y-97039013D01*
X187590058Y-97097887D01*
X187498595Y-97159000D01*
X182910990Y-97159000D01*
X182880000Y-97155948D01*
X182849009Y-97159000D01*
X182849002Y-97159000D01*
X182756302Y-97168130D01*
X182637358Y-97204211D01*
X182527739Y-97262804D01*
X182477190Y-97304289D01*
X182431657Y-97341657D01*
X182411899Y-97365732D01*
X180713632Y-99064000D01*
X174451405Y-99064000D01*
X174359942Y-99002887D01*
X174217809Y-98944013D01*
X174066922Y-98914000D01*
X173913078Y-98914000D01*
X173762191Y-98944013D01*
X173620058Y-99002887D01*
X173492141Y-99088358D01*
X173383358Y-99197141D01*
X173297887Y-99325058D01*
X173239013Y-99467191D01*
X173209000Y-99618078D01*
X158118670Y-99618078D01*
X155315376Y-96814785D01*
X155299527Y-96795473D01*
X155222479Y-96732241D01*
X155134575Y-96685255D01*
X155039193Y-96656322D01*
X154964854Y-96649000D01*
X154964846Y-96649000D01*
X154940000Y-96646553D01*
X154915154Y-96649000D01*
X153633499Y-96649000D01*
X153532857Y-96548358D01*
X153404940Y-96462887D01*
X153262807Y-96404013D01*
X153111920Y-96374000D01*
X152958076Y-96374000D01*
X152807189Y-96404013D01*
X152665056Y-96462887D01*
X152537139Y-96548358D01*
X152428356Y-96657141D01*
X152342885Y-96785058D01*
X152284011Y-96927191D01*
X152253998Y-97078078D01*
X146631660Y-97078078D01*
X146631660Y-95808078D01*
X189719000Y-95808078D01*
X189719000Y-95961922D01*
X189749013Y-96112809D01*
X189807887Y-96254942D01*
X189893358Y-96382859D01*
X189994000Y-96483501D01*
X189994001Y-103541498D01*
X189893358Y-103642141D01*
X189807887Y-103770058D01*
X189749013Y-103912191D01*
X189719000Y-104063078D01*
X189719000Y-104216922D01*
X189749013Y-104367809D01*
X189807887Y-104509942D01*
X189893358Y-104637859D01*
X190002141Y-104746642D01*
X190130058Y-104832113D01*
X190272191Y-104890987D01*
X190423078Y-104921000D01*
X190576922Y-104921000D01*
X190727809Y-104890987D01*
X190869942Y-104832113D01*
X190997859Y-104746642D01*
X191106642Y-104637859D01*
X191192113Y-104509942D01*
X191250987Y-104367809D01*
X191281000Y-104216922D01*
X191281000Y-104063078D01*
X191250987Y-103912191D01*
X191192113Y-103770058D01*
X191106642Y-103642141D01*
X191006000Y-103541499D01*
X191006000Y-100253064D01*
X200514000Y-100253064D01*
X200514000Y-100406908D01*
X200544013Y-100557795D01*
X200602887Y-100699928D01*
X200664001Y-100791392D01*
X200664000Y-104313595D01*
X200602887Y-104405058D01*
X200544013Y-104547191D01*
X200514000Y-104698078D01*
X200514000Y-104851922D01*
X200544013Y-105002809D01*
X200602887Y-105144942D01*
X200688358Y-105272859D01*
X200797141Y-105381642D01*
X200925058Y-105467113D01*
X201067191Y-105525987D01*
X201218078Y-105556000D01*
X201371922Y-105556000D01*
X201522809Y-105525987D01*
X201664942Y-105467113D01*
X201792859Y-105381642D01*
X201901642Y-105272859D01*
X201987113Y-105144942D01*
X202045987Y-105002809D01*
X202076000Y-104851922D01*
X202076000Y-104698078D01*
X202045987Y-104547191D01*
X201987113Y-104405058D01*
X201926000Y-104313595D01*
X201926000Y-100791391D01*
X201987113Y-100699928D01*
X202045987Y-100557795D01*
X202076000Y-100406908D01*
X202076000Y-100253064D01*
X202045987Y-100102177D01*
X201987113Y-99960044D01*
X201901642Y-99832127D01*
X201792859Y-99723344D01*
X201664942Y-99637873D01*
X201522809Y-99578999D01*
X201371922Y-99548986D01*
X201218078Y-99548986D01*
X201067191Y-99578999D01*
X200925058Y-99637873D01*
X200797141Y-99723344D01*
X200688358Y-99832127D01*
X200602887Y-99960044D01*
X200544013Y-100102177D01*
X200514000Y-100253064D01*
X191006000Y-100253064D01*
X191006000Y-96483501D01*
X191106642Y-96382859D01*
X191192113Y-96254942D01*
X191250987Y-96112809D01*
X191281000Y-95961922D01*
X191281000Y-95808078D01*
X191250987Y-95657191D01*
X191192113Y-95515058D01*
X191106642Y-95387141D01*
X190997859Y-95278358D01*
X190869942Y-95192887D01*
X190727809Y-95134013D01*
X190576922Y-95104000D01*
X190423078Y-95104000D01*
X190272191Y-95134013D01*
X190130058Y-95192887D01*
X190002141Y-95278358D01*
X189893358Y-95387141D01*
X189807887Y-95515058D01*
X189749013Y-95657191D01*
X189719000Y-95808078D01*
X146631660Y-95808078D01*
X146631660Y-89455000D01*
X148235061Y-89455000D01*
X148290687Y-90019774D01*
X148455426Y-90562845D01*
X148722946Y-91063341D01*
X148992752Y-91392100D01*
X151612750Y-94012099D01*
X151702969Y-94122031D01*
X151887586Y-94273542D01*
X152141658Y-94482054D01*
X152642154Y-94749575D01*
X153185225Y-94914314D01*
X153750000Y-94969939D01*
X153891526Y-94956000D01*
X161431526Y-94956000D01*
X161854775Y-94914314D01*
X162397845Y-94749575D01*
X162793535Y-94538074D01*
X163811000Y-94538074D01*
X163811000Y-94691918D01*
X163841013Y-94842805D01*
X163899887Y-94984938D01*
X163985358Y-95112855D01*
X164094141Y-95221638D01*
X164222058Y-95307109D01*
X164364191Y-95365983D01*
X164515078Y-95395996D01*
X164668922Y-95395996D01*
X164819809Y-95365983D01*
X164961942Y-95307109D01*
X165089859Y-95221638D01*
X165190483Y-95121014D01*
X177836499Y-95121014D01*
X177937141Y-95221656D01*
X178065058Y-95307127D01*
X178207191Y-95366001D01*
X178358078Y-95396014D01*
X178511922Y-95396014D01*
X178662809Y-95366001D01*
X178804942Y-95307127D01*
X178932859Y-95221656D01*
X179041642Y-95112873D01*
X179127113Y-94984956D01*
X179185987Y-94842823D01*
X179216000Y-94691936D01*
X179216000Y-94538092D01*
X179185987Y-94387205D01*
X179127113Y-94245072D01*
X179041642Y-94117155D01*
X178932859Y-94008372D01*
X178804942Y-93922901D01*
X178662809Y-93864027D01*
X178511922Y-93834014D01*
X178358078Y-93834014D01*
X178207191Y-93864027D01*
X178065058Y-93922901D01*
X177937141Y-94008372D01*
X177836499Y-94109014D01*
X165190519Y-94109014D01*
X165089859Y-94008354D01*
X164961942Y-93922883D01*
X164819809Y-93864009D01*
X164668922Y-93833996D01*
X164515078Y-93833996D01*
X164364191Y-93864009D01*
X164222058Y-93922883D01*
X164094141Y-94008354D01*
X163985358Y-94117137D01*
X163899887Y-94245054D01*
X163841013Y-94387187D01*
X163811000Y-94538074D01*
X162793535Y-94538074D01*
X162898342Y-94482054D01*
X163337031Y-94122031D01*
X163697054Y-93683342D01*
X163877901Y-93345000D01*
X190748690Y-93345000D01*
X190789835Y-93762749D01*
X190911688Y-94164444D01*
X191109566Y-94534648D01*
X191375865Y-94859135D01*
X191700352Y-95125434D01*
X192070556Y-95323312D01*
X192472251Y-95445165D01*
X192785322Y-95476000D01*
X192994678Y-95476000D01*
X193307749Y-95445165D01*
X193709444Y-95323312D01*
X194079648Y-95125434D01*
X194404135Y-94859135D01*
X194670434Y-94534648D01*
X194868312Y-94164444D01*
X194990165Y-93762749D01*
X195031310Y-93345000D01*
X194990165Y-92927251D01*
X194868312Y-92525556D01*
X194670434Y-92155352D01*
X194404135Y-91830865D01*
X194079648Y-91564566D01*
X193709444Y-91366688D01*
X193307749Y-91244835D01*
X192994678Y-91214000D01*
X192785322Y-91214000D01*
X192472251Y-91244835D01*
X192070556Y-91366688D01*
X191700352Y-91564566D01*
X191375865Y-91830865D01*
X191109566Y-92155352D01*
X190911688Y-92525556D01*
X190789835Y-92927251D01*
X190748690Y-93345000D01*
X163877901Y-93345000D01*
X163964575Y-93182845D01*
X164129314Y-92639775D01*
X164184939Y-92075000D01*
X164129314Y-91510225D01*
X163964575Y-90967155D01*
X163697054Y-90466658D01*
X163337031Y-90027969D01*
X162898342Y-89667946D01*
X162397845Y-89400425D01*
X161854775Y-89235686D01*
X161431526Y-89194000D01*
X154943349Y-89194000D01*
X153067100Y-87317752D01*
X152738341Y-87047946D01*
X152237845Y-86780426D01*
X151694774Y-86615687D01*
X151130000Y-86560061D01*
X150565226Y-86615687D01*
X150022155Y-86780426D01*
X149521659Y-87047946D01*
X149082970Y-87407970D01*
X148722946Y-87846659D01*
X148455426Y-88347155D01*
X148290687Y-88890226D01*
X148235061Y-89455000D01*
X146631660Y-89455000D01*
X146631660Y-81915000D01*
X158395061Y-81915000D01*
X158450687Y-82479774D01*
X158615426Y-83022845D01*
X158882946Y-83523341D01*
X159152752Y-83852100D01*
X160422746Y-85122094D01*
X160512969Y-85232031D01*
X160951658Y-85592054D01*
X161452155Y-85859575D01*
X161995225Y-86024314D01*
X162418474Y-86066000D01*
X162418483Y-86066000D01*
X162559999Y-86079938D01*
X162701515Y-86066000D01*
X173431652Y-86066000D01*
X175505251Y-88139600D01*
X175595470Y-88249532D01*
X176034159Y-88609555D01*
X176534656Y-88877076D01*
X177077726Y-89041815D01*
X177500975Y-89083501D01*
X177500977Y-89083501D01*
X177642501Y-89097440D01*
X177784024Y-89083501D01*
X213074000Y-89083501D01*
X214269000Y-90278501D01*
X214269000Y-90885117D01*
X214292600Y-91124731D01*
X214385862Y-91432175D01*
X214537312Y-91715518D01*
X214741129Y-91963871D01*
X214989481Y-92167688D01*
X215091337Y-92222131D01*
X214918761Y-92363761D01*
X214746185Y-92574045D01*
X214617949Y-92813957D01*
X214538982Y-93074277D01*
X214512318Y-93345000D01*
X214538982Y-93615723D01*
X214617949Y-93876043D01*
X214746185Y-94115955D01*
X214918761Y-94326239D01*
X215129045Y-94498815D01*
X215138745Y-94504000D01*
X214567029Y-94504000D01*
X212479486Y-92416458D01*
X212436239Y-92363761D01*
X212225955Y-92191185D01*
X211986043Y-92062949D01*
X211725723Y-91983982D01*
X211522843Y-91964000D01*
X211522833Y-91964000D01*
X211455000Y-91957319D01*
X211387167Y-91964000D01*
X209482157Y-91964000D01*
X209279277Y-91983982D01*
X209018957Y-92062949D01*
X208779045Y-92191185D01*
X208568761Y-92363761D01*
X208396185Y-92574045D01*
X208267949Y-92813957D01*
X208188982Y-93074277D01*
X208162318Y-93345000D01*
X208188982Y-93615723D01*
X208267949Y-93876043D01*
X208396185Y-94115955D01*
X208568761Y-94326239D01*
X208779045Y-94498815D01*
X208874163Y-94549657D01*
X208550000Y-94549657D01*
X208475311Y-94557013D01*
X208403492Y-94578799D01*
X208337304Y-94614178D01*
X208279289Y-94661789D01*
X208231678Y-94719804D01*
X208196299Y-94785992D01*
X208174513Y-94857811D01*
X208167157Y-94932500D01*
X208167157Y-96837500D01*
X208174513Y-96912189D01*
X208196299Y-96984008D01*
X208231678Y-97050196D01*
X208279289Y-97108211D01*
X208337304Y-97155822D01*
X208403492Y-97191201D01*
X208475311Y-97212987D01*
X208550000Y-97220343D01*
X210550000Y-97220343D01*
X210624689Y-97212987D01*
X210696508Y-97191201D01*
X210762696Y-97155822D01*
X210820711Y-97108211D01*
X210868322Y-97050196D01*
X210903701Y-96984008D01*
X210925487Y-96912189D01*
X210932843Y-96837500D01*
X210932843Y-94932500D01*
X210925487Y-94857811D01*
X210903701Y-94785992D01*
X210871634Y-94726000D01*
X210882972Y-94726000D01*
X212970516Y-96813545D01*
X213013761Y-96866239D01*
X213066455Y-96909484D01*
X213066457Y-96909486D01*
X213128528Y-96960426D01*
X213224045Y-97038815D01*
X213463957Y-97167051D01*
X213724277Y-97246018D01*
X213927157Y-97266000D01*
X213927166Y-97266000D01*
X213994999Y-97272681D01*
X214062832Y-97266000D01*
X214825945Y-97266000D01*
X214779289Y-97304289D01*
X214731678Y-97362304D01*
X214696299Y-97428492D01*
X214674513Y-97500311D01*
X214667157Y-97575000D01*
X214667157Y-97801897D01*
X214617950Y-97893957D01*
X214538983Y-98154277D01*
X214519001Y-98357157D01*
X214519000Y-101342842D01*
X214519001Y-101342852D01*
X214519000Y-103392971D01*
X211977972Y-105934000D01*
X209482157Y-105934000D01*
X209279277Y-105953982D01*
X209018957Y-106032949D01*
X208779045Y-106161185D01*
X208568761Y-106333761D01*
X208396185Y-106544045D01*
X208267949Y-106783957D01*
X208188982Y-107044277D01*
X208162318Y-107315000D01*
X208188982Y-107585723D01*
X208267949Y-107846043D01*
X208396185Y-108085955D01*
X208568761Y-108296239D01*
X208779045Y-108468815D01*
X208874163Y-108519657D01*
X208550000Y-108519657D01*
X208475311Y-108527013D01*
X208403492Y-108548799D01*
X208337304Y-108584178D01*
X208279289Y-108631789D01*
X208231678Y-108689804D01*
X208196299Y-108755992D01*
X208174513Y-108827811D01*
X208167157Y-108902500D01*
X208167157Y-110807500D01*
X208174513Y-110882189D01*
X208196299Y-110954008D01*
X208231678Y-111020196D01*
X208279289Y-111078211D01*
X208337304Y-111125822D01*
X208403492Y-111161201D01*
X208475311Y-111182987D01*
X208550000Y-111190343D01*
X210550000Y-111190343D01*
X210624689Y-111182987D01*
X210696508Y-111161201D01*
X210762696Y-111125822D01*
X210820711Y-111078211D01*
X210868322Y-111020196D01*
X210903701Y-110954008D01*
X210925487Y-110882189D01*
X210932843Y-110807500D01*
X210932843Y-108902500D01*
X210925487Y-108827811D01*
X210903701Y-108755992D01*
X210871634Y-108696000D01*
X212482167Y-108696000D01*
X212550000Y-108702681D01*
X212617833Y-108696000D01*
X212617843Y-108696000D01*
X212820723Y-108676018D01*
X213081043Y-108597051D01*
X213320955Y-108468815D01*
X213531239Y-108296239D01*
X213574488Y-108243540D01*
X216828550Y-104989479D01*
X216881238Y-104946239D01*
X216924480Y-104893549D01*
X216924486Y-104893543D01*
X217053814Y-104735956D01*
X217053815Y-104735955D01*
X217182051Y-104496043D01*
X217261018Y-104235723D01*
X217281000Y-104032843D01*
X217281000Y-104032834D01*
X217287681Y-103965001D01*
X217281000Y-103897168D01*
X217281000Y-98357157D01*
X217261018Y-98154277D01*
X217182051Y-97893957D01*
X217132843Y-97801896D01*
X217132843Y-97575000D01*
X217125487Y-97500311D01*
X217103701Y-97428492D01*
X217068322Y-97362304D01*
X217020711Y-97304289D01*
X216962696Y-97256678D01*
X216896508Y-97221299D01*
X216824689Y-97199513D01*
X216750000Y-97192157D01*
X216523104Y-97192157D01*
X216453589Y-97155000D01*
X216670955Y-97038815D01*
X216881239Y-96866239D01*
X217053815Y-96655955D01*
X217182051Y-96416043D01*
X217261018Y-96155723D01*
X217287682Y-95885000D01*
X217261018Y-95614277D01*
X217182051Y-95353957D01*
X217053815Y-95114045D01*
X216881239Y-94903761D01*
X216670955Y-94731185D01*
X216661255Y-94726000D01*
X219007167Y-94726000D01*
X219075000Y-94732681D01*
X219142833Y-94726000D01*
X219142843Y-94726000D01*
X219345723Y-94706018D01*
X219606043Y-94627051D01*
X219845955Y-94498815D01*
X220056239Y-94326239D01*
X220099488Y-94273540D01*
X221908550Y-92464479D01*
X221961238Y-92421239D01*
X222004480Y-92368549D01*
X222004486Y-92368543D01*
X222133815Y-92210955D01*
X222262051Y-91971043D01*
X222341018Y-91710723D01*
X222344077Y-91679660D01*
X222361000Y-91507843D01*
X222361000Y-91507836D01*
X222367681Y-91440000D01*
X222361000Y-91372164D01*
X222361000Y-83887832D01*
X222367681Y-83819999D01*
X222361000Y-83752166D01*
X222361000Y-83752157D01*
X222341018Y-83549277D01*
X222262051Y-83288957D01*
X222133815Y-83049045D01*
X222056390Y-82954702D01*
X222004486Y-82891457D01*
X222004484Y-82891455D01*
X221961239Y-82838761D01*
X221908545Y-82795516D01*
X217559488Y-78446460D01*
X217516239Y-78393761D01*
X217305955Y-78221185D01*
X217066043Y-78092949D01*
X216805723Y-78013982D01*
X216602843Y-77994000D01*
X216602833Y-77994000D01*
X216535000Y-77987319D01*
X216467167Y-77994000D01*
X209482157Y-77994000D01*
X209279277Y-78013982D01*
X209018957Y-78092949D01*
X208779045Y-78221185D01*
X208568761Y-78393761D01*
X208396185Y-78604045D01*
X208267949Y-78843957D01*
X208188982Y-79104277D01*
X208162318Y-79375000D01*
X208188982Y-79645723D01*
X208267949Y-79906043D01*
X208396185Y-80145955D01*
X208568761Y-80356239D01*
X208779045Y-80528815D01*
X208874163Y-80579657D01*
X208550000Y-80579657D01*
X208475311Y-80587013D01*
X208403492Y-80608799D01*
X208337304Y-80644178D01*
X208279289Y-80691789D01*
X208231678Y-80749804D01*
X208196299Y-80815992D01*
X208174513Y-80887811D01*
X208167157Y-80962500D01*
X208167157Y-82867500D01*
X208174513Y-82942189D01*
X208196299Y-83014008D01*
X208231678Y-83080196D01*
X208279289Y-83138211D01*
X208337304Y-83185822D01*
X208403492Y-83221201D01*
X208475311Y-83242987D01*
X208550000Y-83250343D01*
X210550000Y-83250343D01*
X210624689Y-83242987D01*
X210696508Y-83221201D01*
X210762696Y-83185822D01*
X210820711Y-83138211D01*
X210868322Y-83080196D01*
X210903701Y-83014008D01*
X210925487Y-82942189D01*
X210932843Y-82867500D01*
X210932843Y-80962500D01*
X210925487Y-80887811D01*
X210903701Y-80815992D01*
X210871634Y-80756000D01*
X215962972Y-80756000D01*
X219599001Y-84392030D01*
X219599000Y-90867971D01*
X218502972Y-91964000D01*
X217058714Y-91964000D01*
X217058871Y-91963871D01*
X217262688Y-91715519D01*
X217414138Y-91432176D01*
X217507400Y-91124732D01*
X217531000Y-90885118D01*
X217531000Y-89683037D01*
X217538891Y-89602919D01*
X217507400Y-89283187D01*
X217435916Y-89047537D01*
X217414138Y-88975743D01*
X217262688Y-88692400D01*
X217058871Y-88444048D01*
X216996637Y-88392974D01*
X216494172Y-87890509D01*
X216559553Y-87810843D01*
X216827074Y-87310346D01*
X216991813Y-86767276D01*
X217047438Y-86202501D01*
X216991813Y-85637726D01*
X216827074Y-85094656D01*
X216559553Y-84594159D01*
X216199530Y-84155470D01*
X215760841Y-83795447D01*
X215260344Y-83527926D01*
X214717274Y-83363187D01*
X214294025Y-83321501D01*
X178835850Y-83321501D01*
X176762254Y-81247906D01*
X176672031Y-81137969D01*
X176233342Y-80777946D01*
X175732845Y-80510425D01*
X175189775Y-80345686D01*
X174766526Y-80304000D01*
X174766523Y-80304000D01*
X174625000Y-80290061D01*
X174483477Y-80304000D01*
X163753348Y-80304000D01*
X163227100Y-79777752D01*
X162898341Y-79507946D01*
X162649616Y-79375000D01*
X190748690Y-79375000D01*
X190789835Y-79792749D01*
X190911688Y-80194444D01*
X191109566Y-80564648D01*
X191375865Y-80889135D01*
X191700352Y-81155434D01*
X192070556Y-81353312D01*
X192472251Y-81475165D01*
X192785322Y-81506000D01*
X192994678Y-81506000D01*
X193307749Y-81475165D01*
X193709444Y-81353312D01*
X194079648Y-81155434D01*
X194404135Y-80889135D01*
X194670434Y-80564648D01*
X194868312Y-80194444D01*
X194990165Y-79792749D01*
X195031310Y-79375000D01*
X194990165Y-78957251D01*
X194868312Y-78555556D01*
X194670434Y-78185352D01*
X194404135Y-77860865D01*
X194079648Y-77594566D01*
X193709444Y-77396688D01*
X193307749Y-77274835D01*
X192994678Y-77244000D01*
X192785322Y-77244000D01*
X192472251Y-77274835D01*
X192070556Y-77396688D01*
X191700352Y-77594566D01*
X191375865Y-77860865D01*
X191109566Y-78185352D01*
X190911688Y-78555556D01*
X190789835Y-78957251D01*
X190748690Y-79375000D01*
X162649616Y-79375000D01*
X162397845Y-79240426D01*
X161854774Y-79075687D01*
X161290000Y-79020061D01*
X160725226Y-79075687D01*
X160182155Y-79240426D01*
X159681659Y-79507946D01*
X159242970Y-79867970D01*
X158882946Y-80306659D01*
X158615426Y-80807155D01*
X158450687Y-81350226D01*
X158395061Y-81915000D01*
X146631660Y-81915000D01*
X146631660Y-73879369D01*
X148927820Y-73879369D01*
X148927820Y-74299151D01*
X149009716Y-74710867D01*
X149170359Y-75098695D01*
X149403578Y-75447731D01*
X149700409Y-75744562D01*
X150049445Y-75977781D01*
X150437273Y-76138424D01*
X150848989Y-76220320D01*
X151268771Y-76220320D01*
X151680487Y-76138424D01*
X152068315Y-75977781D01*
X152417351Y-75744562D01*
X152714182Y-75447731D01*
X152947401Y-75098695D01*
X153108044Y-74710867D01*
X153189940Y-74299151D01*
X153189940Y-73879369D01*
X218927680Y-73879369D01*
X218927680Y-74299151D01*
X219009576Y-74710867D01*
X219170219Y-75098695D01*
X219403438Y-75447731D01*
X219700269Y-75744562D01*
X220049305Y-75977781D01*
X220437133Y-76138424D01*
X220848849Y-76220320D01*
X221268631Y-76220320D01*
X221680347Y-76138424D01*
X222068175Y-75977781D01*
X222417211Y-75744562D01*
X222714042Y-75447731D01*
X222947261Y-75098695D01*
X223107904Y-74710867D01*
X223189800Y-74299151D01*
X223189800Y-73879369D01*
X223107904Y-73467653D01*
X222947261Y-73079825D01*
X222714042Y-72730789D01*
X222417211Y-72433958D01*
X222068175Y-72200739D01*
X221680347Y-72040096D01*
X221268631Y-71958200D01*
X220848849Y-71958200D01*
X220437133Y-72040096D01*
X220049305Y-72200739D01*
X219700269Y-72433958D01*
X219403438Y-72730789D01*
X219170219Y-73079825D01*
X219009576Y-73467653D01*
X218927680Y-73879369D01*
X153189940Y-73879369D01*
X153108044Y-73467653D01*
X152947401Y-73079825D01*
X152714182Y-72730789D01*
X152417351Y-72433958D01*
X152068315Y-72200739D01*
X151680487Y-72040096D01*
X151268771Y-71958200D01*
X150848989Y-71958200D01*
X150437273Y-72040096D01*
X150049445Y-72200739D01*
X149700409Y-72433958D01*
X149403578Y-72730789D01*
X149170359Y-73079825D01*
X149009716Y-73467653D01*
X148927820Y-73879369D01*
X146631660Y-73879369D01*
X146631660Y-69659500D01*
X225488500Y-69659500D01*
X225488501Y-118516400D01*
X225488501Y-118516400D01*
G37*
X225488501Y-118516400D02*
X201041000Y-118516400D01*
X201041000Y-113879289D01*
X218927680Y-113879289D01*
X218927680Y-114299071D01*
X219009576Y-114710787D01*
X219170219Y-115098615D01*
X219403438Y-115447651D01*
X219700269Y-115744482D01*
X220049305Y-115977701D01*
X220437133Y-116138344D01*
X220848849Y-116220240D01*
X221268631Y-116220240D01*
X221680347Y-116138344D01*
X222068175Y-115977701D01*
X222417211Y-115744482D01*
X222714042Y-115447651D01*
X222947261Y-115098615D01*
X223107904Y-114710787D01*
X223189800Y-114299071D01*
X223189800Y-113879289D01*
X223107904Y-113467573D01*
X222947261Y-113079745D01*
X222714042Y-112730709D01*
X222417211Y-112433878D01*
X222068175Y-112200659D01*
X221680347Y-112040016D01*
X221268631Y-111958120D01*
X220848849Y-111958120D01*
X220437133Y-112040016D01*
X220049305Y-112200659D01*
X219700269Y-112433878D01*
X219403438Y-112730709D01*
X219170219Y-113079745D01*
X219009576Y-113467573D01*
X218927680Y-113879289D01*
X201041000Y-113879289D01*
X201041000Y-113284000D01*
X201038560Y-113259224D01*
X201031333Y-113235399D01*
X201019597Y-113213443D01*
X201003803Y-113194197D01*
X200984557Y-113178403D01*
X200962601Y-113166667D01*
X200938776Y-113159440D01*
X200914000Y-113157000D01*
X154686000Y-113157000D01*
X154661224Y-113159440D01*
X154637399Y-113166667D01*
X154615443Y-113178403D01*
X154596197Y-113194197D01*
X154580403Y-113213443D01*
X154568667Y-113235399D01*
X154561440Y-113259224D01*
X154559000Y-113284000D01*
X154559000Y-118516400D01*
X146631660Y-118516400D01*
X146631660Y-113879289D01*
X148927820Y-113879289D01*
X148927820Y-114299071D01*
X149009716Y-114710787D01*
X149170359Y-115098615D01*
X149403578Y-115447651D01*
X149700409Y-115744482D01*
X150049445Y-115977701D01*
X150437273Y-116138344D01*
X150848989Y-116220240D01*
X151268771Y-116220240D01*
X151680487Y-116138344D01*
X152068315Y-115977701D01*
X152417351Y-115744482D01*
X152714182Y-115447651D01*
X152947401Y-115098615D01*
X153108044Y-114710787D01*
X153189940Y-114299071D01*
X153189940Y-113879289D01*
X153108044Y-113467573D01*
X152947401Y-113079745D01*
X152714182Y-112730709D01*
X152417351Y-112433878D01*
X152068315Y-112200659D01*
X151680487Y-112040016D01*
X151268771Y-111958120D01*
X150848989Y-111958120D01*
X150437273Y-112040016D01*
X150049445Y-112200659D01*
X149700409Y-112433878D01*
X149403578Y-112730709D01*
X149170359Y-113079745D01*
X149009716Y-113467573D01*
X148927820Y-113879289D01*
X146631660Y-113879289D01*
X146631660Y-107735000D01*
X149262157Y-107735000D01*
X149262157Y-109435000D01*
X149269513Y-109509689D01*
X149291299Y-109581508D01*
X149326678Y-109647696D01*
X149374289Y-109705711D01*
X149432304Y-109753322D01*
X149498492Y-109788701D01*
X149570311Y-109810487D01*
X149645000Y-109817843D01*
X151345000Y-109817843D01*
X151419689Y-109810487D01*
X151491508Y-109788701D01*
X151557696Y-109753322D01*
X151615711Y-109705711D01*
X151663322Y-109647696D01*
X151698701Y-109581508D01*
X151720487Y-109509689D01*
X151727843Y-109435000D01*
X151727843Y-107735000D01*
X151720487Y-107660311D01*
X151698701Y-107588492D01*
X151663322Y-107522304D01*
X151615711Y-107464289D01*
X151557696Y-107416678D01*
X151491508Y-107381299D01*
X151419689Y-107359513D01*
X151345000Y-107352157D01*
X149645000Y-107352157D01*
X149570311Y-107359513D01*
X149498492Y-107381299D01*
X149432304Y-107416678D01*
X149374289Y-107464289D01*
X149326678Y-107522304D01*
X149291299Y-107588492D01*
X149269513Y-107660311D01*
X149262157Y-107735000D01*
X146631660Y-107735000D01*
X146631660Y-103505000D01*
X149258044Y-103505000D01*
X149281812Y-103746318D01*
X149352202Y-103978363D01*
X149466509Y-104192216D01*
X149620340Y-104379660D01*
X149807784Y-104533491D01*
X150021637Y-104647798D01*
X150253682Y-104718188D01*
X150434528Y-104736000D01*
X150555472Y-104736000D01*
X150736318Y-104718188D01*
X150968363Y-104647798D01*
X151182216Y-104533491D01*
X151369660Y-104379660D01*
X151523491Y-104192216D01*
X151637798Y-103978363D01*
X151708188Y-103746318D01*
X151731956Y-103505000D01*
X151708188Y-103263682D01*
X151637798Y-103031637D01*
X151523491Y-102817784D01*
X151369660Y-102630340D01*
X151182216Y-102476509D01*
X150968363Y-102362202D01*
X150736318Y-102291812D01*
X150555472Y-102274000D01*
X150434528Y-102274000D01*
X150253682Y-102291812D01*
X150021637Y-102362202D01*
X149807784Y-102476509D01*
X149620340Y-102630340D01*
X149466509Y-102817784D01*
X149352202Y-103031637D01*
X149281812Y-103263682D01*
X149258044Y-103505000D01*
X146631660Y-103505000D01*
X146631660Y-99618078D01*
X154794000Y-99618078D01*
X154794000Y-99771922D01*
X154824013Y-99922809D01*
X154882887Y-100064942D01*
X154968358Y-100192859D01*
X155077141Y-100301642D01*
X155205058Y-100387113D01*
X155347191Y-100445987D01*
X155498078Y-100476000D01*
X155640409Y-100476000D01*
X163454628Y-108290220D01*
X163470473Y-108309527D01*
X163547521Y-108372759D01*
X163635425Y-108419745D01*
X163730807Y-108448678D01*
X163805146Y-108456000D01*
X163805154Y-108456000D01*
X163830000Y-108458447D01*
X163854846Y-108456000D01*
X172756499Y-108456000D01*
X172857141Y-108556642D01*
X172985058Y-108642113D01*
X173127191Y-108700987D01*
X173278078Y-108731000D01*
X173431922Y-108731000D01*
X173582809Y-108700987D01*
X173724942Y-108642113D01*
X173852859Y-108556642D01*
X173961642Y-108447859D01*
X174047113Y-108319942D01*
X174105987Y-108177809D01*
X174136000Y-108026922D01*
X174136000Y-107873078D01*
X174105987Y-107722191D01*
X174047113Y-107580058D01*
X173961642Y-107452141D01*
X173852859Y-107343358D01*
X173810419Y-107315000D01*
X190748690Y-107315000D01*
X190789835Y-107732749D01*
X190911688Y-108134444D01*
X191109566Y-108504648D01*
X191375865Y-108829135D01*
X191700352Y-109095434D01*
X192070556Y-109293312D01*
X192472251Y-109415165D01*
X192785322Y-109446000D01*
X192994678Y-109446000D01*
X193307749Y-109415165D01*
X193709444Y-109293312D01*
X194079648Y-109095434D01*
X194404135Y-108829135D01*
X194670434Y-108504648D01*
X194868312Y-108134444D01*
X194990165Y-107732749D01*
X195031310Y-107315000D01*
X194990165Y-106897251D01*
X194868312Y-106495556D01*
X194670434Y-106125352D01*
X194404135Y-105800865D01*
X194079648Y-105534566D01*
X193709444Y-105336688D01*
X193307749Y-105214835D01*
X192994678Y-105184000D01*
X192785322Y-105184000D01*
X192472251Y-105214835D01*
X192070556Y-105336688D01*
X191700352Y-105534566D01*
X191375865Y-105800865D01*
X191109566Y-106125352D01*
X190911688Y-106495556D01*
X190789835Y-106897251D01*
X190748690Y-107315000D01*
X173810419Y-107315000D01*
X173724942Y-107257887D01*
X173582809Y-107199013D01*
X173431922Y-107169000D01*
X173278078Y-107169000D01*
X173127191Y-107199013D01*
X172985058Y-107257887D01*
X172857141Y-107343358D01*
X172756499Y-107444000D01*
X164039592Y-107444000D01*
X156356000Y-99760409D01*
X156356000Y-99618078D01*
X156325987Y-99467191D01*
X156267113Y-99325058D01*
X156181642Y-99197141D01*
X156072859Y-99088358D01*
X155944942Y-99002887D01*
X155802809Y-98944013D01*
X155651922Y-98914000D01*
X155498078Y-98914000D01*
X155347191Y-98944013D01*
X155205058Y-99002887D01*
X155077141Y-99088358D01*
X154968358Y-99197141D01*
X154882887Y-99325058D01*
X154824013Y-99467191D01*
X154794000Y-99618078D01*
X146631660Y-99618078D01*
X146631660Y-97078078D01*
X152253998Y-97078078D01*
X152253998Y-97231922D01*
X152284011Y-97382809D01*
X152342885Y-97524942D01*
X152428356Y-97652859D01*
X152537139Y-97761642D01*
X152665056Y-97847113D01*
X152807189Y-97905987D01*
X152958076Y-97936000D01*
X153111920Y-97936000D01*
X153262807Y-97905987D01*
X153404940Y-97847113D01*
X153532857Y-97761642D01*
X153633499Y-97661000D01*
X154730409Y-97661000D01*
X163454628Y-106385220D01*
X163470473Y-106404527D01*
X163547521Y-106467759D01*
X163635425Y-106514745D01*
X163730807Y-106543678D01*
X163830000Y-106553448D01*
X163854854Y-106551000D01*
X172756499Y-106551000D01*
X172857141Y-106651642D01*
X172985058Y-106737113D01*
X173127191Y-106795987D01*
X173278078Y-106826000D01*
X173431922Y-106826000D01*
X173582809Y-106795987D01*
X173724942Y-106737113D01*
X173852859Y-106651642D01*
X173961642Y-106542859D01*
X174047113Y-106414942D01*
X174105987Y-106272809D01*
X174136000Y-106121922D01*
X174136000Y-105968078D01*
X174105987Y-105817191D01*
X174047113Y-105675058D01*
X173961642Y-105547141D01*
X173852859Y-105438358D01*
X173724942Y-105352887D01*
X173582809Y-105294013D01*
X173431922Y-105264000D01*
X173278078Y-105264000D01*
X173127191Y-105294013D01*
X172985058Y-105352887D01*
X172857141Y-105438358D01*
X172756499Y-105539000D01*
X164039592Y-105539000D01*
X158118670Y-99618078D01*
X173209000Y-99618078D01*
X173209000Y-99771922D01*
X173239013Y-99922809D01*
X173297887Y-100064942D01*
X173383358Y-100192859D01*
X173492141Y-100301642D01*
X173620058Y-100387113D01*
X173762191Y-100445987D01*
X173913078Y-100476000D01*
X174066922Y-100476000D01*
X174217809Y-100445987D01*
X174359942Y-100387113D01*
X174451405Y-100326000D01*
X180944010Y-100326000D01*
X180975000Y-100329052D01*
X181005990Y-100326000D01*
X181005998Y-100326000D01*
X181098698Y-100316870D01*
X181217642Y-100280789D01*
X181327261Y-100222196D01*
X181423343Y-100143343D01*
X181443105Y-100119263D01*
X183141369Y-98421000D01*
X187498595Y-98421000D01*
X187590058Y-98482113D01*
X187732191Y-98540987D01*
X187883078Y-98571000D01*
X188036922Y-98571000D01*
X188187809Y-98540987D01*
X188329942Y-98482113D01*
X188457859Y-98396642D01*
X188566642Y-98287859D01*
X188652113Y-98159942D01*
X188710987Y-98017809D01*
X188741000Y-97866922D01*
X188741000Y-97713078D01*
X188710987Y-97562191D01*
X188652113Y-97420058D01*
X188566642Y-97292141D01*
X188457859Y-97183358D01*
X188329942Y-97097887D01*
X188187809Y-97039013D01*
X188036922Y-97009000D01*
X187883078Y-97009000D01*
X187732191Y-97039013D01*
X187590058Y-97097887D01*
X187498595Y-97159000D01*
X182910990Y-97159000D01*
X182880000Y-97155948D01*
X182849009Y-97159000D01*
X182849002Y-97159000D01*
X182756302Y-97168130D01*
X182637358Y-97204211D01*
X182527739Y-97262804D01*
X182477190Y-97304289D01*
X182431657Y-97341657D01*
X182411899Y-97365732D01*
X180713632Y-99064000D01*
X174451405Y-99064000D01*
X174359942Y-99002887D01*
X174217809Y-98944013D01*
X174066922Y-98914000D01*
X173913078Y-98914000D01*
X173762191Y-98944013D01*
X173620058Y-99002887D01*
X173492141Y-99088358D01*
X173383358Y-99197141D01*
X173297887Y-99325058D01*
X173239013Y-99467191D01*
X173209000Y-99618078D01*
X158118670Y-99618078D01*
X155315376Y-96814785D01*
X155299527Y-96795473D01*
X155222479Y-96732241D01*
X155134575Y-96685255D01*
X155039193Y-96656322D01*
X154964854Y-96649000D01*
X154964846Y-96649000D01*
X154940000Y-96646553D01*
X154915154Y-96649000D01*
X153633499Y-96649000D01*
X153532857Y-96548358D01*
X153404940Y-96462887D01*
X153262807Y-96404013D01*
X153111920Y-96374000D01*
X152958076Y-96374000D01*
X152807189Y-96404013D01*
X152665056Y-96462887D01*
X152537139Y-96548358D01*
X152428356Y-96657141D01*
X152342885Y-96785058D01*
X152284011Y-96927191D01*
X152253998Y-97078078D01*
X146631660Y-97078078D01*
X146631660Y-95808078D01*
X189719000Y-95808078D01*
X189719000Y-95961922D01*
X189749013Y-96112809D01*
X189807887Y-96254942D01*
X189893358Y-96382859D01*
X189994000Y-96483501D01*
X189994001Y-103541498D01*
X189893358Y-103642141D01*
X189807887Y-103770058D01*
X189749013Y-103912191D01*
X189719000Y-104063078D01*
X189719000Y-104216922D01*
X189749013Y-104367809D01*
X189807887Y-104509942D01*
X189893358Y-104637859D01*
X190002141Y-104746642D01*
X190130058Y-104832113D01*
X190272191Y-104890987D01*
X190423078Y-104921000D01*
X190576922Y-104921000D01*
X190727809Y-104890987D01*
X190869942Y-104832113D01*
X190997859Y-104746642D01*
X191106642Y-104637859D01*
X191192113Y-104509942D01*
X191250987Y-104367809D01*
X191281000Y-104216922D01*
X191281000Y-104063078D01*
X191250987Y-103912191D01*
X191192113Y-103770058D01*
X191106642Y-103642141D01*
X191006000Y-103541499D01*
X191006000Y-100253064D01*
X200514000Y-100253064D01*
X200514000Y-100406908D01*
X200544013Y-100557795D01*
X200602887Y-100699928D01*
X200664001Y-100791392D01*
X200664000Y-104313595D01*
X200602887Y-104405058D01*
X200544013Y-104547191D01*
X200514000Y-104698078D01*
X200514000Y-104851922D01*
X200544013Y-105002809D01*
X200602887Y-105144942D01*
X200688358Y-105272859D01*
X200797141Y-105381642D01*
X200925058Y-105467113D01*
X201067191Y-105525987D01*
X201218078Y-105556000D01*
X201371922Y-105556000D01*
X201522809Y-105525987D01*
X201664942Y-105467113D01*
X201792859Y-105381642D01*
X201901642Y-105272859D01*
X201987113Y-105144942D01*
X202045987Y-105002809D01*
X202076000Y-104851922D01*
X202076000Y-104698078D01*
X202045987Y-104547191D01*
X201987113Y-104405058D01*
X201926000Y-104313595D01*
X201926000Y-100791391D01*
X201987113Y-100699928D01*
X202045987Y-100557795D01*
X202076000Y-100406908D01*
X202076000Y-100253064D01*
X202045987Y-100102177D01*
X201987113Y-99960044D01*
X201901642Y-99832127D01*
X201792859Y-99723344D01*
X201664942Y-99637873D01*
X201522809Y-99578999D01*
X201371922Y-99548986D01*
X201218078Y-99548986D01*
X201067191Y-99578999D01*
X200925058Y-99637873D01*
X200797141Y-99723344D01*
X200688358Y-99832127D01*
X200602887Y-99960044D01*
X200544013Y-100102177D01*
X200514000Y-100253064D01*
X191006000Y-100253064D01*
X191006000Y-96483501D01*
X191106642Y-96382859D01*
X191192113Y-96254942D01*
X191250987Y-96112809D01*
X191281000Y-95961922D01*
X191281000Y-95808078D01*
X191250987Y-95657191D01*
X191192113Y-95515058D01*
X191106642Y-95387141D01*
X190997859Y-95278358D01*
X190869942Y-95192887D01*
X190727809Y-95134013D01*
X190576922Y-95104000D01*
X190423078Y-95104000D01*
X190272191Y-95134013D01*
X190130058Y-95192887D01*
X190002141Y-95278358D01*
X189893358Y-95387141D01*
X189807887Y-95515058D01*
X189749013Y-95657191D01*
X189719000Y-95808078D01*
X146631660Y-95808078D01*
X146631660Y-89455000D01*
X148235061Y-89455000D01*
X148290687Y-90019774D01*
X148455426Y-90562845D01*
X148722946Y-91063341D01*
X148992752Y-91392100D01*
X151612750Y-94012099D01*
X151702969Y-94122031D01*
X151887586Y-94273542D01*
X152141658Y-94482054D01*
X152642154Y-94749575D01*
X153185225Y-94914314D01*
X153750000Y-94969939D01*
X153891526Y-94956000D01*
X161431526Y-94956000D01*
X161854775Y-94914314D01*
X162397845Y-94749575D01*
X162793535Y-94538074D01*
X163811000Y-94538074D01*
X163811000Y-94691918D01*
X163841013Y-94842805D01*
X163899887Y-94984938D01*
X163985358Y-95112855D01*
X164094141Y-95221638D01*
X164222058Y-95307109D01*
X164364191Y-95365983D01*
X164515078Y-95395996D01*
X164668922Y-95395996D01*
X164819809Y-95365983D01*
X164961942Y-95307109D01*
X165089859Y-95221638D01*
X165190483Y-95121014D01*
X177836499Y-95121014D01*
X177937141Y-95221656D01*
X178065058Y-95307127D01*
X178207191Y-95366001D01*
X178358078Y-95396014D01*
X178511922Y-95396014D01*
X178662809Y-95366001D01*
X178804942Y-95307127D01*
X178932859Y-95221656D01*
X179041642Y-95112873D01*
X179127113Y-94984956D01*
X179185987Y-94842823D01*
X179216000Y-94691936D01*
X179216000Y-94538092D01*
X179185987Y-94387205D01*
X179127113Y-94245072D01*
X179041642Y-94117155D01*
X178932859Y-94008372D01*
X178804942Y-93922901D01*
X178662809Y-93864027D01*
X178511922Y-93834014D01*
X178358078Y-93834014D01*
X178207191Y-93864027D01*
X178065058Y-93922901D01*
X177937141Y-94008372D01*
X177836499Y-94109014D01*
X165190519Y-94109014D01*
X165089859Y-94008354D01*
X164961942Y-93922883D01*
X164819809Y-93864009D01*
X164668922Y-93833996D01*
X164515078Y-93833996D01*
X164364191Y-93864009D01*
X164222058Y-93922883D01*
X164094141Y-94008354D01*
X163985358Y-94117137D01*
X163899887Y-94245054D01*
X163841013Y-94387187D01*
X163811000Y-94538074D01*
X162793535Y-94538074D01*
X162898342Y-94482054D01*
X163337031Y-94122031D01*
X163697054Y-93683342D01*
X163877901Y-93345000D01*
X190748690Y-93345000D01*
X190789835Y-93762749D01*
X190911688Y-94164444D01*
X191109566Y-94534648D01*
X191375865Y-94859135D01*
X191700352Y-95125434D01*
X192070556Y-95323312D01*
X192472251Y-95445165D01*
X192785322Y-95476000D01*
X192994678Y-95476000D01*
X193307749Y-95445165D01*
X193709444Y-95323312D01*
X194079648Y-95125434D01*
X194404135Y-94859135D01*
X194670434Y-94534648D01*
X194868312Y-94164444D01*
X194990165Y-93762749D01*
X195031310Y-93345000D01*
X194990165Y-92927251D01*
X194868312Y-92525556D01*
X194670434Y-92155352D01*
X194404135Y-91830865D01*
X194079648Y-91564566D01*
X193709444Y-91366688D01*
X193307749Y-91244835D01*
X192994678Y-91214000D01*
X192785322Y-91214000D01*
X192472251Y-91244835D01*
X192070556Y-91366688D01*
X191700352Y-91564566D01*
X191375865Y-91830865D01*
X191109566Y-92155352D01*
X190911688Y-92525556D01*
X190789835Y-92927251D01*
X190748690Y-93345000D01*
X163877901Y-93345000D01*
X163964575Y-93182845D01*
X164129314Y-92639775D01*
X164184939Y-92075000D01*
X164129314Y-91510225D01*
X163964575Y-90967155D01*
X163697054Y-90466658D01*
X163337031Y-90027969D01*
X162898342Y-89667946D01*
X162397845Y-89400425D01*
X161854775Y-89235686D01*
X161431526Y-89194000D01*
X154943349Y-89194000D01*
X153067100Y-87317752D01*
X152738341Y-87047946D01*
X152237845Y-86780426D01*
X151694774Y-86615687D01*
X151130000Y-86560061D01*
X150565226Y-86615687D01*
X150022155Y-86780426D01*
X149521659Y-87047946D01*
X149082970Y-87407970D01*
X148722946Y-87846659D01*
X148455426Y-88347155D01*
X148290687Y-88890226D01*
X148235061Y-89455000D01*
X146631660Y-89455000D01*
X146631660Y-81915000D01*
X158395061Y-81915000D01*
X158450687Y-82479774D01*
X158615426Y-83022845D01*
X158882946Y-83523341D01*
X159152752Y-83852100D01*
X160422746Y-85122094D01*
X160512969Y-85232031D01*
X160951658Y-85592054D01*
X161452155Y-85859575D01*
X161995225Y-86024314D01*
X162418474Y-86066000D01*
X162418483Y-86066000D01*
X162559999Y-86079938D01*
X162701515Y-86066000D01*
X173431652Y-86066000D01*
X175505251Y-88139600D01*
X175595470Y-88249532D01*
X176034159Y-88609555D01*
X176534656Y-88877076D01*
X177077726Y-89041815D01*
X177500975Y-89083501D01*
X177500977Y-89083501D01*
X177642501Y-89097440D01*
X177784024Y-89083501D01*
X213074000Y-89083501D01*
X214269000Y-90278501D01*
X214269000Y-90885117D01*
X214292600Y-91124731D01*
X214385862Y-91432175D01*
X214537312Y-91715518D01*
X214741129Y-91963871D01*
X214989481Y-92167688D01*
X215091337Y-92222131D01*
X214918761Y-92363761D01*
X214746185Y-92574045D01*
X214617949Y-92813957D01*
X214538982Y-93074277D01*
X214512318Y-93345000D01*
X214538982Y-93615723D01*
X214617949Y-93876043D01*
X214746185Y-94115955D01*
X214918761Y-94326239D01*
X215129045Y-94498815D01*
X215138745Y-94504000D01*
X214567029Y-94504000D01*
X212479486Y-92416458D01*
X212436239Y-92363761D01*
X212225955Y-92191185D01*
X211986043Y-92062949D01*
X211725723Y-91983982D01*
X211522843Y-91964000D01*
X211522833Y-91964000D01*
X211455000Y-91957319D01*
X211387167Y-91964000D01*
X209482157Y-91964000D01*
X209279277Y-91983982D01*
X209018957Y-92062949D01*
X208779045Y-92191185D01*
X208568761Y-92363761D01*
X208396185Y-92574045D01*
X208267949Y-92813957D01*
X208188982Y-93074277D01*
X208162318Y-93345000D01*
X208188982Y-93615723D01*
X208267949Y-93876043D01*
X208396185Y-94115955D01*
X208568761Y-94326239D01*
X208779045Y-94498815D01*
X208874163Y-94549657D01*
X208550000Y-94549657D01*
X208475311Y-94557013D01*
X208403492Y-94578799D01*
X208337304Y-94614178D01*
X208279289Y-94661789D01*
X208231678Y-94719804D01*
X208196299Y-94785992D01*
X208174513Y-94857811D01*
X208167157Y-94932500D01*
X208167157Y-96837500D01*
X208174513Y-96912189D01*
X208196299Y-96984008D01*
X208231678Y-97050196D01*
X208279289Y-97108211D01*
X208337304Y-97155822D01*
X208403492Y-97191201D01*
X208475311Y-97212987D01*
X208550000Y-97220343D01*
X210550000Y-97220343D01*
X210624689Y-97212987D01*
X210696508Y-97191201D01*
X210762696Y-97155822D01*
X210820711Y-97108211D01*
X210868322Y-97050196D01*
X210903701Y-96984008D01*
X210925487Y-96912189D01*
X210932843Y-96837500D01*
X210932843Y-94932500D01*
X210925487Y-94857811D01*
X210903701Y-94785992D01*
X210871634Y-94726000D01*
X210882972Y-94726000D01*
X212970516Y-96813545D01*
X213013761Y-96866239D01*
X213066455Y-96909484D01*
X213066457Y-96909486D01*
X213128528Y-96960426D01*
X213224045Y-97038815D01*
X213463957Y-97167051D01*
X213724277Y-97246018D01*
X213927157Y-97266000D01*
X213927166Y-97266000D01*
X213994999Y-97272681D01*
X214062832Y-97266000D01*
X214825945Y-97266000D01*
X214779289Y-97304289D01*
X214731678Y-97362304D01*
X214696299Y-97428492D01*
X214674513Y-97500311D01*
X214667157Y-97575000D01*
X214667157Y-97801897D01*
X214617950Y-97893957D01*
X214538983Y-98154277D01*
X214519001Y-98357157D01*
X214519000Y-101342842D01*
X214519001Y-101342852D01*
X214519000Y-103392971D01*
X211977972Y-105934000D01*
X209482157Y-105934000D01*
X209279277Y-105953982D01*
X209018957Y-106032949D01*
X208779045Y-106161185D01*
X208568761Y-106333761D01*
X208396185Y-106544045D01*
X208267949Y-106783957D01*
X208188982Y-107044277D01*
X208162318Y-107315000D01*
X208188982Y-107585723D01*
X208267949Y-107846043D01*
X208396185Y-108085955D01*
X208568761Y-108296239D01*
X208779045Y-108468815D01*
X208874163Y-108519657D01*
X208550000Y-108519657D01*
X208475311Y-108527013D01*
X208403492Y-108548799D01*
X208337304Y-108584178D01*
X208279289Y-108631789D01*
X208231678Y-108689804D01*
X208196299Y-108755992D01*
X208174513Y-108827811D01*
X208167157Y-108902500D01*
X208167157Y-110807500D01*
X208174513Y-110882189D01*
X208196299Y-110954008D01*
X208231678Y-111020196D01*
X208279289Y-111078211D01*
X208337304Y-111125822D01*
X208403492Y-111161201D01*
X208475311Y-111182987D01*
X208550000Y-111190343D01*
X210550000Y-111190343D01*
X210624689Y-111182987D01*
X210696508Y-111161201D01*
X210762696Y-111125822D01*
X210820711Y-111078211D01*
X210868322Y-111020196D01*
X210903701Y-110954008D01*
X210925487Y-110882189D01*
X210932843Y-110807500D01*
X210932843Y-108902500D01*
X210925487Y-108827811D01*
X210903701Y-108755992D01*
X210871634Y-108696000D01*
X212482167Y-108696000D01*
X212550000Y-108702681D01*
X212617833Y-108696000D01*
X212617843Y-108696000D01*
X212820723Y-108676018D01*
X213081043Y-108597051D01*
X213320955Y-108468815D01*
X213531239Y-108296239D01*
X213574488Y-108243540D01*
X216828550Y-104989479D01*
X216881238Y-104946239D01*
X216924480Y-104893549D01*
X216924486Y-104893543D01*
X217053814Y-104735956D01*
X217053815Y-104735955D01*
X217182051Y-104496043D01*
X217261018Y-104235723D01*
X217281000Y-104032843D01*
X217281000Y-104032834D01*
X217287681Y-103965001D01*
X217281000Y-103897168D01*
X217281000Y-98357157D01*
X217261018Y-98154277D01*
X217182051Y-97893957D01*
X217132843Y-97801896D01*
X217132843Y-97575000D01*
X217125487Y-97500311D01*
X217103701Y-97428492D01*
X217068322Y-97362304D01*
X217020711Y-97304289D01*
X216962696Y-97256678D01*
X216896508Y-97221299D01*
X216824689Y-97199513D01*
X216750000Y-97192157D01*
X216523104Y-97192157D01*
X216453589Y-97155000D01*
X216670955Y-97038815D01*
X216881239Y-96866239D01*
X217053815Y-96655955D01*
X217182051Y-96416043D01*
X217261018Y-96155723D01*
X217287682Y-95885000D01*
X217261018Y-95614277D01*
X217182051Y-95353957D01*
X217053815Y-95114045D01*
X216881239Y-94903761D01*
X216670955Y-94731185D01*
X216661255Y-94726000D01*
X219007167Y-94726000D01*
X219075000Y-94732681D01*
X219142833Y-94726000D01*
X219142843Y-94726000D01*
X219345723Y-94706018D01*
X219606043Y-94627051D01*
X219845955Y-94498815D01*
X220056239Y-94326239D01*
X220099488Y-94273540D01*
X221908550Y-92464479D01*
X221961238Y-92421239D01*
X222004480Y-92368549D01*
X222004486Y-92368543D01*
X222133815Y-92210955D01*
X222262051Y-91971043D01*
X222341018Y-91710723D01*
X222344077Y-91679660D01*
X222361000Y-91507843D01*
X222361000Y-91507836D01*
X222367681Y-91440000D01*
X222361000Y-91372164D01*
X222361000Y-83887832D01*
X222367681Y-83819999D01*
X222361000Y-83752166D01*
X222361000Y-83752157D01*
X222341018Y-83549277D01*
X222262051Y-83288957D01*
X222133815Y-83049045D01*
X222056390Y-82954702D01*
X222004486Y-82891457D01*
X222004484Y-82891455D01*
X221961239Y-82838761D01*
X221908545Y-82795516D01*
X217559488Y-78446460D01*
X217516239Y-78393761D01*
X217305955Y-78221185D01*
X217066043Y-78092949D01*
X216805723Y-78013982D01*
X216602843Y-77994000D01*
X216602833Y-77994000D01*
X216535000Y-77987319D01*
X216467167Y-77994000D01*
X209482157Y-77994000D01*
X209279277Y-78013982D01*
X209018957Y-78092949D01*
X208779045Y-78221185D01*
X208568761Y-78393761D01*
X208396185Y-78604045D01*
X208267949Y-78843957D01*
X208188982Y-79104277D01*
X208162318Y-79375000D01*
X208188982Y-79645723D01*
X208267949Y-79906043D01*
X208396185Y-80145955D01*
X208568761Y-80356239D01*
X208779045Y-80528815D01*
X208874163Y-80579657D01*
X208550000Y-80579657D01*
X208475311Y-80587013D01*
X208403492Y-80608799D01*
X208337304Y-80644178D01*
X208279289Y-80691789D01*
X208231678Y-80749804D01*
X208196299Y-80815992D01*
X208174513Y-80887811D01*
X208167157Y-80962500D01*
X208167157Y-82867500D01*
X208174513Y-82942189D01*
X208196299Y-83014008D01*
X208231678Y-83080196D01*
X208279289Y-83138211D01*
X208337304Y-83185822D01*
X208403492Y-83221201D01*
X208475311Y-83242987D01*
X208550000Y-83250343D01*
X210550000Y-83250343D01*
X210624689Y-83242987D01*
X210696508Y-83221201D01*
X210762696Y-83185822D01*
X210820711Y-83138211D01*
X210868322Y-83080196D01*
X210903701Y-83014008D01*
X210925487Y-82942189D01*
X210932843Y-82867500D01*
X210932843Y-80962500D01*
X210925487Y-80887811D01*
X210903701Y-80815992D01*
X210871634Y-80756000D01*
X215962972Y-80756000D01*
X219599001Y-84392030D01*
X219599000Y-90867971D01*
X218502972Y-91964000D01*
X217058714Y-91964000D01*
X217058871Y-91963871D01*
X217262688Y-91715519D01*
X217414138Y-91432176D01*
X217507400Y-91124732D01*
X217531000Y-90885118D01*
X217531000Y-89683037D01*
X217538891Y-89602919D01*
X217507400Y-89283187D01*
X217435916Y-89047537D01*
X217414138Y-88975743D01*
X217262688Y-88692400D01*
X217058871Y-88444048D01*
X216996637Y-88392974D01*
X216494172Y-87890509D01*
X216559553Y-87810843D01*
X216827074Y-87310346D01*
X216991813Y-86767276D01*
X217047438Y-86202501D01*
X216991813Y-85637726D01*
X216827074Y-85094656D01*
X216559553Y-84594159D01*
X216199530Y-84155470D01*
X215760841Y-83795447D01*
X215260344Y-83527926D01*
X214717274Y-83363187D01*
X214294025Y-83321501D01*
X178835850Y-83321501D01*
X176762254Y-81247906D01*
X176672031Y-81137969D01*
X176233342Y-80777946D01*
X175732845Y-80510425D01*
X175189775Y-80345686D01*
X174766526Y-80304000D01*
X174766523Y-80304000D01*
X174625000Y-80290061D01*
X174483477Y-80304000D01*
X163753348Y-80304000D01*
X163227100Y-79777752D01*
X162898341Y-79507946D01*
X162649616Y-79375000D01*
X190748690Y-79375000D01*
X190789835Y-79792749D01*
X190911688Y-80194444D01*
X191109566Y-80564648D01*
X191375865Y-80889135D01*
X191700352Y-81155434D01*
X192070556Y-81353312D01*
X192472251Y-81475165D01*
X192785322Y-81506000D01*
X192994678Y-81506000D01*
X193307749Y-81475165D01*
X193709444Y-81353312D01*
X194079648Y-81155434D01*
X194404135Y-80889135D01*
X194670434Y-80564648D01*
X194868312Y-80194444D01*
X194990165Y-79792749D01*
X195031310Y-79375000D01*
X194990165Y-78957251D01*
X194868312Y-78555556D01*
X194670434Y-78185352D01*
X194404135Y-77860865D01*
X194079648Y-77594566D01*
X193709444Y-77396688D01*
X193307749Y-77274835D01*
X192994678Y-77244000D01*
X192785322Y-77244000D01*
X192472251Y-77274835D01*
X192070556Y-77396688D01*
X191700352Y-77594566D01*
X191375865Y-77860865D01*
X191109566Y-78185352D01*
X190911688Y-78555556D01*
X190789835Y-78957251D01*
X190748690Y-79375000D01*
X162649616Y-79375000D01*
X162397845Y-79240426D01*
X161854774Y-79075687D01*
X161290000Y-79020061D01*
X160725226Y-79075687D01*
X160182155Y-79240426D01*
X159681659Y-79507946D01*
X159242970Y-79867970D01*
X158882946Y-80306659D01*
X158615426Y-80807155D01*
X158450687Y-81350226D01*
X158395061Y-81915000D01*
X146631660Y-81915000D01*
X146631660Y-73879369D01*
X148927820Y-73879369D01*
X148927820Y-74299151D01*
X149009716Y-74710867D01*
X149170359Y-75098695D01*
X149403578Y-75447731D01*
X149700409Y-75744562D01*
X150049445Y-75977781D01*
X150437273Y-76138424D01*
X150848989Y-76220320D01*
X151268771Y-76220320D01*
X151680487Y-76138424D01*
X152068315Y-75977781D01*
X152417351Y-75744562D01*
X152714182Y-75447731D01*
X152947401Y-75098695D01*
X153108044Y-74710867D01*
X153189940Y-74299151D01*
X153189940Y-73879369D01*
X218927680Y-73879369D01*
X218927680Y-74299151D01*
X219009576Y-74710867D01*
X219170219Y-75098695D01*
X219403438Y-75447731D01*
X219700269Y-75744562D01*
X220049305Y-75977781D01*
X220437133Y-76138424D01*
X220848849Y-76220320D01*
X221268631Y-76220320D01*
X221680347Y-76138424D01*
X222068175Y-75977781D01*
X222417211Y-75744562D01*
X222714042Y-75447731D01*
X222947261Y-75098695D01*
X223107904Y-74710867D01*
X223189800Y-74299151D01*
X223189800Y-73879369D01*
X223107904Y-73467653D01*
X222947261Y-73079825D01*
X222714042Y-72730789D01*
X222417211Y-72433958D01*
X222068175Y-72200739D01*
X221680347Y-72040096D01*
X221268631Y-71958200D01*
X220848849Y-71958200D01*
X220437133Y-72040096D01*
X220049305Y-72200739D01*
X219700269Y-72433958D01*
X219403438Y-72730789D01*
X219170219Y-73079825D01*
X219009576Y-73467653D01*
X218927680Y-73879369D01*
X153189940Y-73879369D01*
X153108044Y-73467653D01*
X152947401Y-73079825D01*
X152714182Y-72730789D01*
X152417351Y-72433958D01*
X152068315Y-72200739D01*
X151680487Y-72040096D01*
X151268771Y-71958200D01*
X150848989Y-71958200D01*
X150437273Y-72040096D01*
X150049445Y-72200739D01*
X149700409Y-72433958D01*
X149403578Y-72730789D01*
X149170359Y-73079825D01*
X149009716Y-73467653D01*
X148927820Y-73879369D01*
X146631660Y-73879369D01*
X146631660Y-69659500D01*
X225488500Y-69659500D01*
X225488501Y-118516400D01*
M02*
