<svg version="1" xmlns="http://www.w3.org/2000/svg" width="466.667" height="466.667" viewBox="0 0 350.000000 350.000000"><path d="M163.7 4.6c-.1.1-3.3.5-7.2.9-3.8.3-8.8 1-11 1.5-2.2.5-5.6 1.2-7.5 1.5-14 2.4-37.9 11.9-50.7 20.1-2.9 1.8-5.5 3.4-5.8 3.4-1.9 0-19 14.3-28 23.4-15.9 16.1-27.9 33.5-35.1 51.1-1.4 3.3-2.9 6.9-3.4 8-3.6 7.5-10 33.8-10 40.9 0 1.8-.5 3.7-1.2 4.4-.9.9-.9 1.2 0 1.2.8 0 .9.7.4 2.2-.9 2.5-.7 21 .2 29.3 4.8 41 21.7 76 50.5 104.5 17.8 17.6 37.8 30.4 61.7 39.3 8.3 3.2 24.5 7.1 33.9 8.3 1.7.2 4.6.7 6.5 1 4.3.9 33 1.2 33 .3 0-.3 1.7-.6 3.8-.7 2-.1 4.8-.4 6.2-.7 1.4-.2 4.1-.7 6-1 19.6-3.2 44.5-13.3 63-25.6 24.1-16 43.9-38.1 57.2-63.8 6.9-13.1 12.6-28.6 15.3-41.6 3-13.8 3.9-22.8 3.9-37.5 0-12.6-.8-21.3-2.9-32-.3-1.4-.7-3.4-.9-4.5-4.3-22.8-20.7-55.6-37.3-74.5-8.5-9.7-22.7-22.9-27.2-25.4-.9-.5-1.8-1.2-2.1-1.6-1.1-1.3-16.9-10.9-23.5-14.3-8.5-4.2-19.5-8.8-19.5-8 0 .3-.6.1-1.2-.5-1.2-.9-13.8-4.7-19.1-5.8-6.3-1.2-13.7-2.4-18.2-3-4.8-.6-29.3-1.3-29.8-.8z"/></svg>